G04 (created by PCBNEW (2013-01-23 BZR 3920)-testing) date Thu 24 Jan 2013 01:23:50 AM CET*
%MOIN*%
G04 Gerber Fmt 3.4, Leading zero omitted, Abs format*
%FSLAX34Y34*%
G01*
G70*
G90*
G04 APERTURE LIST*
%ADD10C,2.3622e-06*%
%ADD11C,0.0118*%
%ADD12C,0.015*%
%ADD13C,0.012*%
%ADD14C,0.0026*%
%ADD15C,0.006*%
%ADD16C,0.002*%
%ADD17C,0.004*%
%ADD18C,0.008*%
%ADD19R,0.08X0.08*%
%ADD20C,0.08*%
%ADD21R,0.0593X0.0633*%
%ADD22R,0.079X0.0711*%
G04 APERTURE END LIST*
G54D10*
G54D11*
X55531Y-25967D02*
X55643Y-25967D01*
X55699Y-25939D01*
X55728Y-25910D01*
X55784Y-25826D01*
X55812Y-25713D01*
X55812Y-25488D01*
X55784Y-25432D01*
X55756Y-25404D01*
X55699Y-25376D01*
X55587Y-25376D01*
X55531Y-25404D01*
X55502Y-25432D01*
X55474Y-25488D01*
X55474Y-25629D01*
X55502Y-25685D01*
X55531Y-25713D01*
X55587Y-25742D01*
X55699Y-25742D01*
X55756Y-25713D01*
X55784Y-25685D01*
X55812Y-25629D01*
X56178Y-25376D02*
X56234Y-25376D01*
X56290Y-25404D01*
X56319Y-25432D01*
X56347Y-25488D01*
X56375Y-25601D01*
X56375Y-25742D01*
X56347Y-25854D01*
X56319Y-25910D01*
X56290Y-25939D01*
X56234Y-25967D01*
X56178Y-25967D01*
X56122Y-25939D01*
X56093Y-25910D01*
X56065Y-25854D01*
X56037Y-25742D01*
X56037Y-25601D01*
X56065Y-25488D01*
X56093Y-25432D01*
X56122Y-25404D01*
X56178Y-25376D01*
X52260Y-25629D02*
X52204Y-25601D01*
X52175Y-25573D01*
X52147Y-25516D01*
X52147Y-25488D01*
X52175Y-25432D01*
X52204Y-25404D01*
X52260Y-25376D01*
X52372Y-25376D01*
X52429Y-25404D01*
X52457Y-25432D01*
X52485Y-25488D01*
X52485Y-25516D01*
X52457Y-25573D01*
X52429Y-25601D01*
X52372Y-25629D01*
X52260Y-25629D01*
X52204Y-25657D01*
X52175Y-25685D01*
X52147Y-25742D01*
X52147Y-25854D01*
X52175Y-25910D01*
X52204Y-25939D01*
X52260Y-25967D01*
X52372Y-25967D01*
X52429Y-25939D01*
X52457Y-25910D01*
X52485Y-25854D01*
X52485Y-25742D01*
X52457Y-25685D01*
X52429Y-25657D01*
X52372Y-25629D01*
X52851Y-25376D02*
X52907Y-25376D01*
X52963Y-25404D01*
X52992Y-25432D01*
X53020Y-25488D01*
X53048Y-25601D01*
X53048Y-25742D01*
X53020Y-25854D01*
X52992Y-25910D01*
X52963Y-25939D01*
X52907Y-25967D01*
X52851Y-25967D01*
X52795Y-25939D01*
X52766Y-25910D01*
X52738Y-25854D01*
X52710Y-25742D01*
X52710Y-25601D01*
X52738Y-25488D01*
X52766Y-25432D01*
X52795Y-25404D01*
X52851Y-25376D01*
X48793Y-25376D02*
X49187Y-25376D01*
X48934Y-25967D01*
X49525Y-25376D02*
X49581Y-25376D01*
X49637Y-25404D01*
X49666Y-25432D01*
X49694Y-25488D01*
X49722Y-25601D01*
X49722Y-25742D01*
X49694Y-25854D01*
X49666Y-25910D01*
X49637Y-25939D01*
X49581Y-25967D01*
X49525Y-25967D01*
X49469Y-25939D01*
X49440Y-25910D01*
X49412Y-25854D01*
X49384Y-25742D01*
X49384Y-25601D01*
X49412Y-25488D01*
X49440Y-25432D01*
X49469Y-25404D01*
X49525Y-25376D01*
X45776Y-25376D02*
X45663Y-25376D01*
X45607Y-25404D01*
X45579Y-25432D01*
X45522Y-25516D01*
X45494Y-25629D01*
X45494Y-25854D01*
X45522Y-25910D01*
X45551Y-25939D01*
X45607Y-25967D01*
X45719Y-25967D01*
X45776Y-25939D01*
X45804Y-25910D01*
X45832Y-25854D01*
X45832Y-25713D01*
X45804Y-25657D01*
X45776Y-25629D01*
X45719Y-25601D01*
X45607Y-25601D01*
X45551Y-25629D01*
X45522Y-25657D01*
X45494Y-25713D01*
X46198Y-25376D02*
X46254Y-25376D01*
X46310Y-25404D01*
X46339Y-25432D01*
X46367Y-25488D01*
X46395Y-25601D01*
X46395Y-25742D01*
X46367Y-25854D01*
X46339Y-25910D01*
X46310Y-25939D01*
X46254Y-25967D01*
X46198Y-25967D01*
X46142Y-25939D01*
X46113Y-25910D01*
X46085Y-25854D01*
X46057Y-25742D01*
X46057Y-25601D01*
X46085Y-25488D01*
X46113Y-25432D01*
X46142Y-25404D01*
X46198Y-25376D01*
X42477Y-25357D02*
X42195Y-25357D01*
X42167Y-25638D01*
X42195Y-25610D01*
X42252Y-25582D01*
X42392Y-25582D01*
X42449Y-25610D01*
X42477Y-25638D01*
X42505Y-25694D01*
X42505Y-25835D01*
X42477Y-25891D01*
X42449Y-25920D01*
X42392Y-25948D01*
X42252Y-25948D01*
X42195Y-25920D01*
X42167Y-25891D01*
X42871Y-25357D02*
X42927Y-25357D01*
X42983Y-25385D01*
X43012Y-25413D01*
X43040Y-25469D01*
X43068Y-25582D01*
X43068Y-25723D01*
X43040Y-25835D01*
X43012Y-25891D01*
X42983Y-25920D01*
X42927Y-25948D01*
X42871Y-25948D01*
X42815Y-25920D01*
X42786Y-25891D01*
X42758Y-25835D01*
X42730Y-25723D01*
X42730Y-25582D01*
X42758Y-25469D01*
X42786Y-25413D01*
X42815Y-25385D01*
X42871Y-25357D01*
X39122Y-25573D02*
X39122Y-25967D01*
X38981Y-25348D02*
X38840Y-25770D01*
X39206Y-25770D01*
X39544Y-25376D02*
X39600Y-25376D01*
X39656Y-25404D01*
X39685Y-25432D01*
X39713Y-25488D01*
X39741Y-25601D01*
X39741Y-25742D01*
X39713Y-25854D01*
X39685Y-25910D01*
X39656Y-25939D01*
X39600Y-25967D01*
X39544Y-25967D01*
X39488Y-25939D01*
X39459Y-25910D01*
X39431Y-25854D01*
X39403Y-25742D01*
X39403Y-25601D01*
X39431Y-25488D01*
X39459Y-25432D01*
X39488Y-25404D01*
X39544Y-25376D01*
X35486Y-25376D02*
X35852Y-25376D01*
X35655Y-25601D01*
X35739Y-25601D01*
X35796Y-25629D01*
X35824Y-25657D01*
X35852Y-25713D01*
X35852Y-25854D01*
X35824Y-25910D01*
X35796Y-25939D01*
X35739Y-25967D01*
X35571Y-25967D01*
X35514Y-25939D01*
X35486Y-25910D01*
X36218Y-25376D02*
X36274Y-25376D01*
X36330Y-25404D01*
X36359Y-25432D01*
X36387Y-25488D01*
X36415Y-25601D01*
X36415Y-25742D01*
X36387Y-25854D01*
X36359Y-25910D01*
X36330Y-25939D01*
X36274Y-25967D01*
X36218Y-25967D01*
X36162Y-25939D01*
X36133Y-25910D01*
X36105Y-25854D01*
X36077Y-25742D01*
X36077Y-25601D01*
X36105Y-25488D01*
X36133Y-25432D01*
X36162Y-25404D01*
X36218Y-25376D01*
X32187Y-25432D02*
X32215Y-25404D01*
X32272Y-25376D01*
X32412Y-25376D01*
X32469Y-25404D01*
X32497Y-25432D01*
X32525Y-25488D01*
X32525Y-25545D01*
X32497Y-25629D01*
X32159Y-25967D01*
X32525Y-25967D01*
X32891Y-25376D02*
X32947Y-25376D01*
X33003Y-25404D01*
X33032Y-25432D01*
X33060Y-25488D01*
X33088Y-25601D01*
X33088Y-25742D01*
X33060Y-25854D01*
X33032Y-25910D01*
X33003Y-25939D01*
X32947Y-25967D01*
X32891Y-25967D01*
X32835Y-25939D01*
X32806Y-25910D01*
X32778Y-25854D01*
X32750Y-25742D01*
X32750Y-25601D01*
X32778Y-25488D01*
X32806Y-25432D01*
X32835Y-25404D01*
X32891Y-25376D01*
X29198Y-25967D02*
X28860Y-25967D01*
X29029Y-25967D02*
X29029Y-25376D01*
X28973Y-25460D01*
X28917Y-25516D01*
X28860Y-25545D01*
X29564Y-25376D02*
X29620Y-25376D01*
X29676Y-25404D01*
X29705Y-25432D01*
X29733Y-25488D01*
X29761Y-25601D01*
X29761Y-25742D01*
X29733Y-25854D01*
X29705Y-25910D01*
X29676Y-25939D01*
X29620Y-25967D01*
X29564Y-25967D01*
X29508Y-25939D01*
X29479Y-25910D01*
X29451Y-25854D01*
X29423Y-25742D01*
X29423Y-25601D01*
X29451Y-25488D01*
X29479Y-25432D01*
X29508Y-25404D01*
X29564Y-25376D01*
G54D12*
X55925Y-23720D02*
X55925Y-24902D01*
X45946Y-23720D02*
X45946Y-24902D01*
X49273Y-24902D02*
X49273Y-23720D01*
X52599Y-23720D02*
X52599Y-24902D01*
X39291Y-23720D02*
X39291Y-24902D01*
X35965Y-24902D02*
X35965Y-23720D01*
X32638Y-23720D02*
X32638Y-24902D01*
X29311Y-23720D02*
X29311Y-24902D01*
X42618Y-23720D02*
X42618Y-24902D01*
X25984Y-24311D02*
X59252Y-24311D01*
X59252Y-26378D02*
X25984Y-26378D01*
X25984Y-22244D02*
X59252Y-22244D01*
X25984Y-22244D02*
X25984Y-26378D01*
X59252Y-22244D02*
X59252Y-26378D01*
G54D13*
X21646Y-22811D02*
X22646Y-22811D01*
X22646Y-22811D02*
X22646Y-25811D01*
X22646Y-25811D02*
X21646Y-25811D01*
X21646Y-25811D02*
X21646Y-22811D01*
X22646Y-23811D02*
X21646Y-23811D01*
X21661Y-25811D02*
X20661Y-25811D01*
X20661Y-25811D02*
X20661Y-22811D01*
X20661Y-22811D02*
X21661Y-22811D01*
X21661Y-22811D02*
X21661Y-25811D01*
X20661Y-24811D02*
X21661Y-24811D01*
G54D14*
X24678Y-22709D02*
X24838Y-22709D01*
X24838Y-22709D02*
X24838Y-22369D01*
X24678Y-22369D02*
X24838Y-22369D01*
X24678Y-22709D02*
X24678Y-22369D01*
X24178Y-22709D02*
X24338Y-22709D01*
X24338Y-22709D02*
X24338Y-22369D01*
X24178Y-22369D02*
X24338Y-22369D01*
X24178Y-22709D02*
X24178Y-22369D01*
X24430Y-22696D02*
X24586Y-22696D01*
X24586Y-22696D02*
X24586Y-22382D01*
X24430Y-22382D02*
X24586Y-22382D01*
X24430Y-22696D02*
X24430Y-22382D01*
G54D15*
X24338Y-22679D02*
X24678Y-22679D01*
X24678Y-22399D02*
X24338Y-22399D01*
G54D16*
X23929Y-22152D02*
X25087Y-22152D01*
X25087Y-22152D02*
X25087Y-22926D01*
X25087Y-22926D02*
X23929Y-22926D01*
X23929Y-22926D02*
X23929Y-22152D01*
G54D14*
X23612Y-23362D02*
X23612Y-23067D01*
X23612Y-23067D02*
X23042Y-23067D01*
X23042Y-23362D02*
X23042Y-23067D01*
X23612Y-23362D02*
X23042Y-23362D01*
X23612Y-22793D02*
X23612Y-22498D01*
X23612Y-22498D02*
X23042Y-22498D01*
X23042Y-22793D02*
X23042Y-22498D01*
X23612Y-22793D02*
X23042Y-22793D01*
X23484Y-22972D02*
X23484Y-22894D01*
X23484Y-22894D02*
X23170Y-22894D01*
X23170Y-22972D02*
X23170Y-22894D01*
X23484Y-22972D02*
X23170Y-22972D01*
G54D16*
X22940Y-23709D02*
X22940Y-22157D01*
X23714Y-22157D02*
X23714Y-23709D01*
X23714Y-23709D02*
X22940Y-23709D01*
G54D17*
X23068Y-23083D02*
X23068Y-22783D01*
X23586Y-23073D02*
X23586Y-22783D01*
G54D16*
X22940Y-22157D02*
X23714Y-22157D01*
G54D14*
X24678Y-26252D02*
X24838Y-26252D01*
X24838Y-26252D02*
X24838Y-25912D01*
X24678Y-25912D02*
X24838Y-25912D01*
X24678Y-26252D02*
X24678Y-25912D01*
X24178Y-26252D02*
X24338Y-26252D01*
X24338Y-26252D02*
X24338Y-25912D01*
X24178Y-25912D02*
X24338Y-25912D01*
X24178Y-26252D02*
X24178Y-25912D01*
X24430Y-26239D02*
X24586Y-26239D01*
X24586Y-26239D02*
X24586Y-25925D01*
X24430Y-25925D02*
X24586Y-25925D01*
X24430Y-26239D02*
X24430Y-25925D01*
G54D15*
X24338Y-26222D02*
X24678Y-26222D01*
X24678Y-25942D02*
X24338Y-25942D01*
G54D16*
X23929Y-25695D02*
X25087Y-25695D01*
X25087Y-25695D02*
X25087Y-26469D01*
X25087Y-26469D02*
X23929Y-26469D01*
X23929Y-26469D02*
X23929Y-25695D01*
G54D14*
X23042Y-25260D02*
X23042Y-25555D01*
X23042Y-25555D02*
X23612Y-25555D01*
X23612Y-25260D02*
X23612Y-25555D01*
X23042Y-25260D02*
X23612Y-25260D01*
X23042Y-25829D02*
X23042Y-26124D01*
X23042Y-26124D02*
X23612Y-26124D01*
X23612Y-25829D02*
X23612Y-26124D01*
X23042Y-25829D02*
X23612Y-25829D01*
X23170Y-25650D02*
X23170Y-25728D01*
X23170Y-25728D02*
X23484Y-25728D01*
X23484Y-25650D02*
X23484Y-25728D01*
X23170Y-25650D02*
X23484Y-25650D01*
G54D16*
X23714Y-24913D02*
X23714Y-26465D01*
X22940Y-26465D02*
X22940Y-24913D01*
X22940Y-24913D02*
X23714Y-24913D01*
G54D17*
X23586Y-25539D02*
X23586Y-25839D01*
X23068Y-25549D02*
X23068Y-25839D01*
G54D16*
X23714Y-26465D02*
X22940Y-26465D01*
G54D18*
X24441Y-23488D02*
X24308Y-23298D01*
X24212Y-23488D02*
X24212Y-23088D01*
X24365Y-23088D01*
X24403Y-23107D01*
X24422Y-23127D01*
X24441Y-23165D01*
X24441Y-23222D01*
X24422Y-23260D01*
X24403Y-23279D01*
X24365Y-23298D01*
X24212Y-23298D01*
X24822Y-23488D02*
X24593Y-23488D01*
X24708Y-23488D02*
X24708Y-23088D01*
X24669Y-23146D01*
X24631Y-23184D01*
X24593Y-23203D01*
X23260Y-24139D02*
X23241Y-24158D01*
X23184Y-24177D01*
X23146Y-24177D01*
X23088Y-24158D01*
X23050Y-24120D01*
X23031Y-24082D01*
X23012Y-24006D01*
X23012Y-23949D01*
X23031Y-23873D01*
X23050Y-23835D01*
X23088Y-23796D01*
X23146Y-23777D01*
X23184Y-23777D01*
X23241Y-23796D01*
X23260Y-23816D01*
X23641Y-24177D02*
X23412Y-24177D01*
X23527Y-24177D02*
X23527Y-23777D01*
X23488Y-23835D01*
X23450Y-23873D01*
X23412Y-23892D01*
X24441Y-25456D02*
X24308Y-25266D01*
X24212Y-25456D02*
X24212Y-25056D01*
X24365Y-25056D01*
X24403Y-25075D01*
X24422Y-25095D01*
X24441Y-25133D01*
X24441Y-25190D01*
X24422Y-25228D01*
X24403Y-25247D01*
X24365Y-25266D01*
X24212Y-25266D01*
X24593Y-25095D02*
X24612Y-25075D01*
X24650Y-25056D01*
X24746Y-25056D01*
X24784Y-25075D01*
X24803Y-25095D01*
X24822Y-25133D01*
X24822Y-25171D01*
X24803Y-25228D01*
X24574Y-25456D01*
X24822Y-25456D01*
X23260Y-24729D02*
X23241Y-24748D01*
X23184Y-24767D01*
X23146Y-24767D01*
X23088Y-24748D01*
X23050Y-24710D01*
X23031Y-24672D01*
X23012Y-24596D01*
X23012Y-24539D01*
X23031Y-24463D01*
X23050Y-24425D01*
X23088Y-24386D01*
X23146Y-24367D01*
X23184Y-24367D01*
X23241Y-24386D01*
X23260Y-24406D01*
X23412Y-24406D02*
X23431Y-24386D01*
X23469Y-24367D01*
X23565Y-24367D01*
X23603Y-24386D01*
X23622Y-24406D01*
X23641Y-24444D01*
X23641Y-24482D01*
X23622Y-24539D01*
X23393Y-24767D01*
X23641Y-24767D01*
%LPC*%
G54D19*
X22146Y-23311D03*
G54D20*
X22146Y-24311D03*
X22146Y-25311D03*
G54D19*
X21161Y-25311D03*
G54D20*
X21161Y-24311D03*
X21161Y-23311D03*
G54D21*
X24174Y-22539D03*
X24842Y-22539D03*
G54D22*
X23327Y-23307D03*
X23327Y-22559D03*
G54D21*
X24174Y-26082D03*
X24842Y-26082D03*
G54D22*
X23327Y-25315D03*
X23327Y-26063D03*
M02*
