G04 (created by PCBNEW-RS274X (2012-jan-04)-stable) date Wed 18 Jul 2012 10:47:18 AM CEST*
G01*
G70*
G90*
%MOIN*%
G04 Gerber Fmt 3.4, Leading zero omitted, Abs format*
%FSLAX34Y34*%
G04 APERTURE LIST*
%ADD10C,0.006000*%
%ADD11C,0.002600*%
%ADD12C,0.002000*%
%ADD13C,0.004000*%
%ADD14C,0.012500*%
%ADD15C,0.012000*%
%ADD16C,0.008000*%
%ADD17R,0.059300X0.063300*%
%ADD18R,0.071100X0.079000*%
%ADD19R,0.075000X0.075000*%
%ADD20C,0.075000*%
G04 APERTURE END LIST*
G54D10*
G54D11*
X32946Y-41312D02*
X33106Y-41312D01*
X33106Y-41312D02*
X33106Y-40972D01*
X32946Y-40972D02*
X33106Y-40972D01*
X32946Y-41312D02*
X32946Y-40972D01*
X32446Y-41312D02*
X32606Y-41312D01*
X32606Y-41312D02*
X32606Y-40972D01*
X32446Y-40972D02*
X32606Y-40972D01*
X32446Y-41312D02*
X32446Y-40972D01*
X32698Y-41299D02*
X32854Y-41299D01*
X32854Y-41299D02*
X32854Y-40985D01*
X32698Y-40985D02*
X32854Y-40985D01*
X32698Y-41299D02*
X32698Y-40985D01*
G54D10*
X32606Y-41282D02*
X32946Y-41282D01*
X32946Y-41002D02*
X32606Y-41002D01*
G54D12*
X32197Y-40755D02*
X33355Y-40755D01*
X33355Y-40755D02*
X33355Y-41529D01*
X33355Y-41529D02*
X32197Y-41529D01*
X32197Y-41529D02*
X32197Y-40755D01*
G54D11*
X30449Y-41054D02*
X30154Y-41054D01*
X30154Y-41054D02*
X30154Y-41624D01*
X30449Y-41624D02*
X30154Y-41624D01*
X30449Y-41054D02*
X30449Y-41624D01*
X29880Y-41054D02*
X29585Y-41054D01*
X29585Y-41054D02*
X29585Y-41624D01*
X29880Y-41624D02*
X29585Y-41624D01*
X29880Y-41054D02*
X29880Y-41624D01*
X30059Y-41182D02*
X29981Y-41182D01*
X29981Y-41182D02*
X29981Y-41496D01*
X30059Y-41496D02*
X29981Y-41496D01*
X30059Y-41182D02*
X30059Y-41496D01*
G54D12*
X30796Y-41726D02*
X29244Y-41726D01*
X29244Y-40952D02*
X30796Y-40952D01*
X30796Y-40952D02*
X30796Y-41726D01*
G54D13*
X30170Y-41598D02*
X29870Y-41598D01*
X30160Y-41080D02*
X29870Y-41080D01*
G54D12*
X29244Y-41726D02*
X29244Y-40952D01*
G54D14*
X65740Y-42724D02*
X66740Y-42724D01*
X65740Y-41724D02*
X66740Y-41724D01*
G54D15*
X65740Y-42724D02*
X65740Y-41724D01*
X66740Y-41724D02*
X66740Y-42724D01*
X29012Y-42921D02*
X29012Y-41921D01*
X29012Y-41921D02*
X32012Y-41921D01*
X32012Y-41921D02*
X32012Y-42921D01*
X32012Y-42921D02*
X29012Y-42921D01*
X30012Y-41921D02*
X30012Y-42921D01*
X29012Y-43906D02*
X29012Y-42906D01*
X29012Y-42906D02*
X32012Y-42906D01*
X32012Y-42906D02*
X32012Y-43906D01*
X32012Y-43906D02*
X29012Y-43906D01*
X30012Y-42906D02*
X30012Y-43906D01*
G54D14*
X35228Y-44004D02*
X36228Y-44004D01*
X35228Y-43004D02*
X36228Y-43004D01*
G54D15*
X35228Y-44004D02*
X35228Y-43004D01*
X36228Y-43004D02*
X36228Y-44004D01*
G54D11*
X32946Y-44855D02*
X33106Y-44855D01*
X33106Y-44855D02*
X33106Y-44515D01*
X32946Y-44515D02*
X33106Y-44515D01*
X32946Y-44855D02*
X32946Y-44515D01*
X32446Y-44855D02*
X32606Y-44855D01*
X32606Y-44855D02*
X32606Y-44515D01*
X32446Y-44515D02*
X32606Y-44515D01*
X32446Y-44855D02*
X32446Y-44515D01*
X32698Y-44842D02*
X32854Y-44842D01*
X32854Y-44842D02*
X32854Y-44528D01*
X32698Y-44528D02*
X32854Y-44528D01*
X32698Y-44842D02*
X32698Y-44528D01*
G54D10*
X32606Y-44825D02*
X32946Y-44825D01*
X32946Y-44545D02*
X32606Y-44545D01*
G54D12*
X32197Y-44298D02*
X33355Y-44298D01*
X33355Y-44298D02*
X33355Y-45072D01*
X33355Y-45072D02*
X32197Y-45072D01*
X32197Y-45072D02*
X32197Y-44298D01*
G54D11*
X30449Y-44203D02*
X30154Y-44203D01*
X30154Y-44203D02*
X30154Y-44773D01*
X30449Y-44773D02*
X30154Y-44773D01*
X30449Y-44203D02*
X30449Y-44773D01*
X29880Y-44203D02*
X29585Y-44203D01*
X29585Y-44203D02*
X29585Y-44773D01*
X29880Y-44773D02*
X29585Y-44773D01*
X29880Y-44203D02*
X29880Y-44773D01*
X30059Y-44331D02*
X29981Y-44331D01*
X29981Y-44331D02*
X29981Y-44645D01*
X30059Y-44645D02*
X29981Y-44645D01*
X30059Y-44331D02*
X30059Y-44645D01*
G54D12*
X30796Y-44875D02*
X29244Y-44875D01*
X29244Y-44101D02*
X30796Y-44101D01*
X30796Y-44101D02*
X30796Y-44875D01*
G54D13*
X30170Y-44747D02*
X29870Y-44747D01*
X30160Y-44229D02*
X29870Y-44229D01*
G54D12*
X29244Y-44875D02*
X29244Y-44101D01*
G54D16*
X33990Y-41304D02*
X33856Y-41113D01*
X33761Y-41304D02*
X33761Y-40904D01*
X33914Y-40904D01*
X33952Y-40923D01*
X33971Y-40942D01*
X33990Y-40980D01*
X33990Y-41037D01*
X33971Y-41075D01*
X33952Y-41094D01*
X33914Y-41113D01*
X33761Y-41113D01*
X34371Y-41304D02*
X34142Y-41304D01*
X34256Y-41304D02*
X34256Y-40904D01*
X34218Y-40961D01*
X34180Y-40999D01*
X34142Y-41018D01*
X31233Y-41463D02*
X31214Y-41482D01*
X31157Y-41501D01*
X31119Y-41501D01*
X31061Y-41482D01*
X31023Y-41444D01*
X31004Y-41406D01*
X30985Y-41329D01*
X30985Y-41272D01*
X31004Y-41196D01*
X31023Y-41158D01*
X31061Y-41120D01*
X31119Y-41101D01*
X31157Y-41101D01*
X31214Y-41120D01*
X31233Y-41139D01*
X31614Y-41501D02*
X31385Y-41501D01*
X31499Y-41501D02*
X31499Y-41101D01*
X31461Y-41158D01*
X31423Y-41196D01*
X31385Y-41215D01*
X64554Y-41986D02*
X64783Y-41986D01*
X64668Y-42386D02*
X64668Y-41986D01*
X64916Y-42386D02*
X64916Y-41986D01*
X65069Y-41986D01*
X65107Y-42005D01*
X65126Y-42024D01*
X65145Y-42062D01*
X65145Y-42119D01*
X65126Y-42157D01*
X65107Y-42176D01*
X65069Y-42195D01*
X64916Y-42195D01*
X65526Y-42386D02*
X65297Y-42386D01*
X65411Y-42386D02*
X65411Y-41986D01*
X65373Y-42043D01*
X65335Y-42081D01*
X65297Y-42100D01*
X36503Y-43266D02*
X36732Y-43266D01*
X36617Y-43666D02*
X36617Y-43266D01*
X36865Y-43666D02*
X36865Y-43266D01*
X37018Y-43266D01*
X37056Y-43285D01*
X37075Y-43304D01*
X37094Y-43342D01*
X37094Y-43399D01*
X37075Y-43437D01*
X37056Y-43456D01*
X37018Y-43475D01*
X36865Y-43475D01*
X37246Y-43304D02*
X37265Y-43285D01*
X37303Y-43266D01*
X37399Y-43266D01*
X37437Y-43285D01*
X37456Y-43304D01*
X37475Y-43342D01*
X37475Y-43380D01*
X37456Y-43437D01*
X37227Y-43666D01*
X37475Y-43666D01*
X33710Y-44347D02*
X33576Y-44156D01*
X33481Y-44347D02*
X33481Y-43947D01*
X33634Y-43947D01*
X33672Y-43966D01*
X33691Y-43985D01*
X33710Y-44023D01*
X33710Y-44080D01*
X33691Y-44118D01*
X33672Y-44137D01*
X33634Y-44156D01*
X33481Y-44156D01*
X33862Y-43985D02*
X33881Y-43966D01*
X33919Y-43947D01*
X34015Y-43947D01*
X34053Y-43966D01*
X34072Y-43985D01*
X34091Y-44023D01*
X34091Y-44061D01*
X34072Y-44118D01*
X33843Y-44347D01*
X34091Y-44347D01*
X31233Y-44612D02*
X31214Y-44631D01*
X31157Y-44650D01*
X31119Y-44650D01*
X31061Y-44631D01*
X31023Y-44593D01*
X31004Y-44555D01*
X30985Y-44478D01*
X30985Y-44421D01*
X31004Y-44345D01*
X31023Y-44307D01*
X31061Y-44269D01*
X31119Y-44250D01*
X31157Y-44250D01*
X31214Y-44269D01*
X31233Y-44288D01*
X31385Y-44288D02*
X31404Y-44269D01*
X31442Y-44250D01*
X31538Y-44250D01*
X31576Y-44269D01*
X31595Y-44288D01*
X31614Y-44326D01*
X31614Y-44364D01*
X31595Y-44421D01*
X31366Y-44650D01*
X31614Y-44650D01*
%LPC*%
G54D17*
X32442Y-41142D03*
X33110Y-41142D03*
G54D18*
X30394Y-41339D03*
X29646Y-41339D03*
G54D19*
X66240Y-42224D03*
X29512Y-42421D03*
G54D20*
X30512Y-42421D03*
X31512Y-42421D03*
G54D19*
X29512Y-43406D03*
G54D20*
X30512Y-43406D03*
X31512Y-43406D03*
G54D19*
X35728Y-43504D03*
G54D17*
X32442Y-44685D03*
X33110Y-44685D03*
G54D18*
X30394Y-44488D03*
X29646Y-44488D03*
M02*
