G04 (created by PCBNEW-RS274X (2012-jan-04)-stable) date Wed 18 Jul 2012 02:08:58 PM CEST*
G01*
G70*
G90*
%MOIN*%
G04 Gerber Fmt 3.4, Leading zero omitted, Abs format*
%FSLAX34Y34*%
G04 APERTURE LIST*
%ADD10C,0.006000*%
%ADD11C,0.008000*%
%ADD12C,0.015000*%
%ADD13C,0.011800*%
%ADD14C,0.000100*%
%ADD15R,0.075000X0.075000*%
%ADD16C,0.075000*%
G04 APERTURE END LIST*
G54D10*
G54D11*
X53926Y-22762D02*
X53945Y-22781D01*
X54002Y-22800D01*
X54040Y-22800D01*
X54098Y-22781D01*
X54136Y-22743D01*
X54155Y-22705D01*
X54174Y-22628D01*
X54174Y-22571D01*
X54155Y-22495D01*
X54136Y-22457D01*
X54098Y-22419D01*
X54040Y-22400D01*
X54002Y-22400D01*
X53945Y-22419D01*
X53926Y-22438D01*
X53583Y-22800D02*
X53583Y-22590D01*
X53602Y-22552D01*
X53640Y-22533D01*
X53717Y-22533D01*
X53755Y-22552D01*
X53583Y-22781D02*
X53621Y-22800D01*
X53717Y-22800D01*
X53755Y-22781D01*
X53774Y-22743D01*
X53774Y-22705D01*
X53755Y-22667D01*
X53717Y-22648D01*
X53621Y-22648D01*
X53583Y-22628D01*
X53393Y-22533D02*
X53393Y-22933D01*
X53393Y-22552D02*
X53355Y-22533D01*
X53278Y-22533D01*
X53240Y-22552D01*
X53221Y-22571D01*
X53202Y-22609D01*
X53202Y-22724D01*
X53221Y-22762D01*
X53240Y-22781D01*
X53278Y-22800D01*
X53355Y-22800D01*
X53393Y-22781D01*
X52859Y-22800D02*
X52859Y-22590D01*
X52878Y-22552D01*
X52916Y-22533D01*
X52993Y-22533D01*
X53031Y-22552D01*
X52859Y-22781D02*
X52897Y-22800D01*
X52993Y-22800D01*
X53031Y-22781D01*
X53050Y-22743D01*
X53050Y-22705D01*
X53031Y-22667D01*
X52993Y-22648D01*
X52897Y-22648D01*
X52859Y-22628D01*
X52497Y-22781D02*
X52535Y-22800D01*
X52612Y-22800D01*
X52650Y-22781D01*
X52669Y-22762D01*
X52688Y-22724D01*
X52688Y-22609D01*
X52669Y-22571D01*
X52650Y-22552D01*
X52612Y-22533D01*
X52535Y-22533D01*
X52497Y-22552D01*
X52326Y-22800D02*
X52326Y-22533D01*
X52326Y-22400D02*
X52345Y-22419D01*
X52326Y-22438D01*
X52307Y-22419D01*
X52326Y-22400D01*
X52326Y-22438D01*
X52193Y-22533D02*
X52041Y-22533D01*
X52136Y-22400D02*
X52136Y-22743D01*
X52117Y-22781D01*
X52079Y-22800D01*
X52041Y-22800D01*
X51907Y-22800D02*
X51907Y-22533D01*
X51907Y-22400D02*
X51926Y-22419D01*
X51907Y-22438D01*
X51888Y-22419D01*
X51907Y-22400D01*
X51907Y-22438D01*
X51755Y-22533D02*
X51660Y-22800D01*
X51564Y-22533D01*
X51259Y-22781D02*
X51297Y-22800D01*
X51374Y-22800D01*
X51412Y-22781D01*
X51431Y-22743D01*
X51431Y-22590D01*
X51412Y-22552D01*
X51374Y-22533D01*
X51297Y-22533D01*
X51259Y-22552D01*
X51240Y-22590D01*
X51240Y-22628D01*
X51431Y-22667D01*
X50783Y-22781D02*
X50745Y-22800D01*
X50669Y-22800D01*
X50630Y-22781D01*
X50611Y-22743D01*
X50611Y-22724D01*
X50630Y-22686D01*
X50669Y-22667D01*
X50726Y-22667D01*
X50764Y-22648D01*
X50783Y-22609D01*
X50783Y-22590D01*
X50764Y-22552D01*
X50726Y-22533D01*
X50669Y-22533D01*
X50630Y-22552D01*
X50383Y-22800D02*
X50421Y-22781D01*
X50440Y-22743D01*
X50440Y-22400D01*
X50230Y-22800D02*
X50230Y-22533D01*
X50230Y-22400D02*
X50249Y-22419D01*
X50230Y-22438D01*
X50211Y-22419D01*
X50230Y-22400D01*
X50230Y-22438D01*
X49868Y-22800D02*
X49868Y-22400D01*
X49868Y-22781D02*
X49906Y-22800D01*
X49983Y-22800D01*
X50021Y-22781D01*
X50040Y-22762D01*
X50059Y-22724D01*
X50059Y-22609D01*
X50040Y-22571D01*
X50021Y-22552D01*
X49983Y-22533D01*
X49906Y-22533D01*
X49868Y-22552D01*
X49525Y-22781D02*
X49563Y-22800D01*
X49640Y-22800D01*
X49678Y-22781D01*
X49697Y-22743D01*
X49697Y-22590D01*
X49678Y-22552D01*
X49640Y-22533D01*
X49563Y-22533D01*
X49525Y-22552D01*
X49506Y-22590D01*
X49506Y-22628D01*
X49697Y-22667D01*
X49335Y-22800D02*
X49335Y-22533D01*
X49335Y-22609D02*
X49316Y-22571D01*
X49297Y-22552D01*
X49259Y-22533D01*
X49220Y-22533D01*
X48839Y-22400D02*
X48706Y-22800D01*
X48572Y-22400D01*
X48363Y-22400D02*
X48324Y-22400D01*
X48286Y-22419D01*
X48267Y-22438D01*
X48248Y-22476D01*
X48229Y-22552D01*
X48229Y-22648D01*
X48248Y-22724D01*
X48267Y-22762D01*
X48286Y-22781D01*
X48324Y-22800D01*
X48363Y-22800D01*
X48401Y-22781D01*
X48420Y-22762D01*
X48439Y-22724D01*
X48458Y-22648D01*
X48458Y-22552D01*
X48439Y-22476D01*
X48420Y-22438D01*
X48401Y-22419D01*
X48363Y-22400D01*
X48058Y-22762D02*
X48039Y-22781D01*
X48058Y-22800D01*
X48077Y-22781D01*
X48058Y-22762D01*
X48058Y-22800D01*
X47658Y-22800D02*
X47887Y-22800D01*
X47773Y-22800D02*
X47773Y-22400D01*
X47811Y-22457D01*
X47849Y-22495D01*
X47887Y-22514D01*
X42016Y-22438D02*
X41997Y-22419D01*
X41959Y-22400D01*
X41863Y-22400D01*
X41825Y-22419D01*
X41806Y-22438D01*
X41787Y-22476D01*
X41787Y-22514D01*
X41806Y-22571D01*
X42035Y-22800D01*
X41787Y-22800D01*
X41540Y-22400D02*
X41501Y-22400D01*
X41463Y-22419D01*
X41444Y-22438D01*
X41425Y-22476D01*
X41406Y-22552D01*
X41406Y-22648D01*
X41425Y-22724D01*
X41444Y-22762D01*
X41463Y-22781D01*
X41501Y-22800D01*
X41540Y-22800D01*
X41578Y-22781D01*
X41597Y-22762D01*
X41616Y-22724D01*
X41635Y-22648D01*
X41635Y-22552D01*
X41616Y-22476D01*
X41597Y-22438D01*
X41578Y-22419D01*
X41540Y-22400D01*
X41025Y-22800D02*
X41254Y-22800D01*
X41140Y-22800D02*
X41140Y-22400D01*
X41178Y-22457D01*
X41216Y-22495D01*
X41254Y-22514D01*
X40873Y-22438D02*
X40854Y-22419D01*
X40816Y-22400D01*
X40720Y-22400D01*
X40682Y-22419D01*
X40663Y-22438D01*
X40644Y-22476D01*
X40644Y-22514D01*
X40663Y-22571D01*
X40892Y-22800D01*
X40644Y-22800D01*
X40168Y-22648D02*
X39863Y-22648D01*
X39368Y-22800D02*
X39368Y-22400D01*
X39368Y-22552D02*
X39330Y-22533D01*
X39253Y-22533D01*
X39215Y-22552D01*
X39196Y-22571D01*
X39177Y-22609D01*
X39177Y-22724D01*
X39196Y-22762D01*
X39215Y-22781D01*
X39253Y-22800D01*
X39330Y-22800D01*
X39368Y-22781D01*
X38949Y-22800D02*
X38987Y-22781D01*
X39006Y-22743D01*
X39006Y-22400D01*
X38739Y-22800D02*
X38777Y-22781D01*
X38796Y-22762D01*
X38815Y-22724D01*
X38815Y-22609D01*
X38796Y-22571D01*
X38777Y-22552D01*
X38739Y-22533D01*
X38681Y-22533D01*
X38643Y-22552D01*
X38624Y-22571D01*
X38605Y-22609D01*
X38605Y-22724D01*
X38624Y-22762D01*
X38643Y-22781D01*
X38681Y-22800D01*
X38739Y-22800D01*
X38262Y-22533D02*
X38262Y-22857D01*
X38281Y-22895D01*
X38300Y-22914D01*
X38339Y-22933D01*
X38396Y-22933D01*
X38434Y-22914D01*
X38262Y-22781D02*
X38300Y-22800D01*
X38377Y-22800D01*
X38415Y-22781D01*
X38434Y-22762D01*
X38453Y-22724D01*
X38453Y-22609D01*
X38434Y-22571D01*
X38415Y-22552D01*
X38377Y-22533D01*
X38300Y-22533D01*
X38262Y-22552D01*
X38072Y-22762D02*
X38053Y-22781D01*
X38072Y-22800D01*
X38091Y-22781D01*
X38072Y-22762D01*
X38072Y-22800D01*
X37901Y-22781D02*
X37863Y-22800D01*
X37787Y-22800D01*
X37748Y-22781D01*
X37729Y-22743D01*
X37729Y-22724D01*
X37748Y-22686D01*
X37787Y-22667D01*
X37844Y-22667D01*
X37882Y-22648D01*
X37901Y-22609D01*
X37901Y-22590D01*
X37882Y-22552D01*
X37844Y-22533D01*
X37787Y-22533D01*
X37748Y-22552D01*
X37558Y-22533D02*
X37558Y-22933D01*
X37558Y-22552D02*
X37520Y-22533D01*
X37443Y-22533D01*
X37405Y-22552D01*
X37386Y-22571D01*
X37367Y-22609D01*
X37367Y-22724D01*
X37386Y-22762D01*
X37405Y-22781D01*
X37443Y-22800D01*
X37520Y-22800D01*
X37558Y-22781D01*
X37196Y-22800D02*
X37196Y-22533D01*
X37196Y-22400D02*
X37215Y-22419D01*
X37196Y-22438D01*
X37177Y-22419D01*
X37196Y-22400D01*
X37196Y-22438D01*
X37063Y-22533D02*
X36911Y-22533D01*
X37006Y-22400D02*
X37006Y-22743D01*
X36987Y-22781D01*
X36949Y-22800D01*
X36911Y-22800D01*
X36815Y-22533D02*
X36605Y-22533D01*
X36815Y-22800D01*
X36605Y-22800D01*
X36300Y-22781D02*
X36338Y-22800D01*
X36415Y-22800D01*
X36453Y-22781D01*
X36472Y-22743D01*
X36472Y-22590D01*
X36453Y-22552D01*
X36415Y-22533D01*
X36338Y-22533D01*
X36300Y-22552D01*
X36281Y-22590D01*
X36281Y-22628D01*
X36472Y-22667D01*
X36110Y-22533D02*
X36110Y-22800D01*
X36110Y-22571D02*
X36091Y-22552D01*
X36053Y-22533D01*
X35995Y-22533D01*
X35957Y-22552D01*
X35938Y-22590D01*
X35938Y-22800D01*
X35748Y-22533D02*
X35748Y-22933D01*
X35748Y-22552D02*
X35710Y-22533D01*
X35633Y-22533D01*
X35595Y-22552D01*
X35576Y-22571D01*
X35557Y-22609D01*
X35557Y-22724D01*
X35576Y-22762D01*
X35595Y-22781D01*
X35633Y-22800D01*
X35710Y-22800D01*
X35748Y-22781D01*
X35443Y-22533D02*
X35291Y-22533D01*
X35386Y-22800D02*
X35386Y-22457D01*
X35367Y-22419D01*
X35329Y-22400D01*
X35291Y-22400D01*
X35004Y-22781D02*
X35042Y-22800D01*
X35119Y-22800D01*
X35157Y-22781D01*
X35176Y-22743D01*
X35176Y-22590D01*
X35157Y-22552D01*
X35119Y-22533D01*
X35042Y-22533D01*
X35004Y-22552D01*
X34985Y-22590D01*
X34985Y-22628D01*
X35176Y-22667D01*
X34814Y-22800D02*
X34814Y-22533D01*
X34814Y-22400D02*
X34833Y-22419D01*
X34814Y-22438D01*
X34795Y-22419D01*
X34814Y-22400D01*
X34814Y-22438D01*
X34567Y-22800D02*
X34605Y-22781D01*
X34624Y-22743D01*
X34624Y-22400D01*
X34414Y-22762D02*
X34395Y-22781D01*
X34414Y-22800D01*
X34433Y-22781D01*
X34414Y-22762D01*
X34414Y-22800D01*
X34167Y-22800D02*
X34205Y-22781D01*
X34224Y-22762D01*
X34243Y-22724D01*
X34243Y-22609D01*
X34224Y-22571D01*
X34205Y-22552D01*
X34167Y-22533D01*
X34109Y-22533D01*
X34071Y-22552D01*
X34052Y-22571D01*
X34033Y-22609D01*
X34033Y-22724D01*
X34052Y-22762D01*
X34071Y-22781D01*
X34109Y-22800D01*
X34167Y-22800D01*
X33862Y-22800D02*
X33862Y-22533D01*
X33862Y-22609D02*
X33843Y-22571D01*
X33824Y-22552D01*
X33786Y-22533D01*
X33747Y-22533D01*
X33442Y-22533D02*
X33442Y-22857D01*
X33461Y-22895D01*
X33480Y-22914D01*
X33519Y-22933D01*
X33576Y-22933D01*
X33614Y-22914D01*
X33442Y-22781D02*
X33480Y-22800D01*
X33557Y-22800D01*
X33595Y-22781D01*
X33614Y-22762D01*
X33633Y-22724D01*
X33633Y-22609D01*
X33614Y-22571D01*
X33595Y-22552D01*
X33557Y-22533D01*
X33480Y-22533D01*
X33442Y-22552D01*
G54D12*
X21654Y-24803D02*
X20669Y-24803D01*
X21654Y-23819D02*
X22638Y-23819D01*
X27165Y-24311D02*
X27165Y-23327D01*
X27756Y-24311D02*
X27756Y-25295D01*
X25984Y-24311D02*
X25984Y-25295D01*
X25394Y-24311D02*
X25394Y-23327D01*
X21654Y-22835D02*
X21654Y-25787D01*
X22638Y-22835D02*
X20669Y-22835D01*
X22638Y-25787D02*
X22638Y-22835D01*
X20669Y-25787D02*
X22638Y-25787D01*
X20669Y-22835D02*
X20669Y-25787D01*
G54D13*
X29789Y-24747D02*
X29722Y-24769D01*
X29699Y-24792D01*
X29677Y-24837D01*
X29677Y-24904D01*
X29699Y-24949D01*
X29722Y-24972D01*
X29767Y-24994D01*
X29947Y-24994D01*
X29947Y-24522D01*
X29789Y-24522D01*
X29744Y-24545D01*
X29722Y-24567D01*
X29699Y-24612D01*
X29699Y-24657D01*
X29722Y-24702D01*
X29744Y-24724D01*
X29789Y-24747D01*
X29947Y-24747D01*
X29935Y-23875D02*
X29710Y-23875D01*
X29980Y-24010D02*
X29823Y-23538D01*
X29665Y-24010D01*
X22112Y-22385D02*
X22045Y-22407D01*
X22022Y-22430D01*
X22000Y-22475D01*
X22000Y-22542D01*
X22022Y-22587D01*
X22045Y-22610D01*
X22090Y-22632D01*
X22270Y-22632D01*
X22270Y-22160D01*
X22112Y-22160D01*
X22067Y-22183D01*
X22045Y-22205D01*
X22022Y-22250D01*
X22022Y-22295D01*
X22045Y-22340D01*
X22067Y-22362D01*
X22112Y-22385D01*
X22270Y-22385D01*
X21273Y-22497D02*
X21048Y-22497D01*
X21318Y-22632D02*
X21161Y-22160D01*
X21003Y-22632D01*
G54D12*
X24016Y-24311D02*
X29232Y-24311D01*
X29232Y-23327D02*
X24016Y-23327D01*
X29232Y-25295D02*
X29232Y-23327D01*
X24016Y-25295D02*
X29232Y-25295D01*
X24016Y-23327D02*
X24016Y-25295D01*
G54D11*
X28757Y-24698D02*
X28757Y-25022D01*
X28776Y-25060D01*
X28795Y-25079D01*
X28834Y-25098D01*
X28891Y-25098D01*
X28929Y-25079D01*
X28757Y-24946D02*
X28795Y-24965D01*
X28872Y-24965D01*
X28910Y-24946D01*
X28929Y-24927D01*
X28948Y-24889D01*
X28948Y-24774D01*
X28929Y-24736D01*
X28910Y-24717D01*
X28872Y-24698D01*
X28795Y-24698D01*
X28757Y-24717D01*
X28567Y-24698D02*
X28567Y-24965D01*
X28567Y-24736D02*
X28548Y-24717D01*
X28510Y-24698D01*
X28452Y-24698D01*
X28414Y-24717D01*
X28395Y-24755D01*
X28395Y-24965D01*
X28033Y-24965D02*
X28033Y-24565D01*
X28033Y-24946D02*
X28071Y-24965D01*
X28148Y-24965D01*
X28186Y-24946D01*
X28205Y-24927D01*
X28224Y-24889D01*
X28224Y-24774D01*
X28205Y-24736D01*
X28186Y-24717D01*
X28148Y-24698D01*
X28071Y-24698D01*
X28033Y-24717D01*
X27557Y-24946D02*
X27519Y-24965D01*
X27443Y-24965D01*
X27404Y-24946D01*
X27385Y-24908D01*
X27385Y-24889D01*
X27404Y-24851D01*
X27443Y-24832D01*
X27500Y-24832D01*
X27538Y-24813D01*
X27557Y-24774D01*
X27557Y-24755D01*
X27538Y-24717D01*
X27500Y-24698D01*
X27443Y-24698D01*
X27404Y-24717D01*
X27271Y-24698D02*
X27119Y-24698D01*
X27214Y-24565D02*
X27214Y-24908D01*
X27195Y-24946D01*
X27157Y-24965D01*
X27119Y-24965D01*
X26928Y-24965D02*
X26966Y-24946D01*
X26985Y-24927D01*
X27004Y-24889D01*
X27004Y-24774D01*
X26985Y-24736D01*
X26966Y-24717D01*
X26928Y-24698D01*
X26870Y-24698D01*
X26832Y-24717D01*
X26813Y-24736D01*
X26794Y-24774D01*
X26794Y-24889D01*
X26813Y-24927D01*
X26832Y-24946D01*
X26870Y-24965D01*
X26928Y-24965D01*
X26623Y-24965D02*
X26623Y-24698D01*
X26623Y-24774D02*
X26604Y-24736D01*
X26585Y-24717D01*
X26547Y-24698D01*
X26508Y-24698D01*
X26222Y-24946D02*
X26260Y-24965D01*
X26337Y-24965D01*
X26375Y-24946D01*
X26394Y-24908D01*
X26394Y-24755D01*
X26375Y-24717D01*
X26337Y-24698D01*
X26260Y-24698D01*
X26222Y-24717D01*
X26203Y-24755D01*
X26203Y-24793D01*
X26394Y-24832D01*
X25746Y-24946D02*
X25708Y-24965D01*
X25632Y-24965D01*
X25593Y-24946D01*
X25574Y-24908D01*
X25574Y-24889D01*
X25593Y-24851D01*
X25632Y-24832D01*
X25689Y-24832D01*
X25727Y-24813D01*
X25746Y-24774D01*
X25746Y-24755D01*
X25727Y-24717D01*
X25689Y-24698D01*
X25632Y-24698D01*
X25593Y-24717D01*
X25250Y-24946D02*
X25288Y-24965D01*
X25365Y-24965D01*
X25403Y-24946D01*
X25422Y-24908D01*
X25422Y-24755D01*
X25403Y-24717D01*
X25365Y-24698D01*
X25288Y-24698D01*
X25250Y-24717D01*
X25231Y-24755D01*
X25231Y-24793D01*
X25422Y-24832D01*
X25060Y-24698D02*
X25060Y-24965D01*
X25060Y-24736D02*
X25041Y-24717D01*
X25003Y-24698D01*
X24945Y-24698D01*
X24907Y-24717D01*
X24888Y-24755D01*
X24888Y-24965D01*
X24717Y-24946D02*
X24679Y-24965D01*
X24603Y-24965D01*
X24564Y-24946D01*
X24545Y-24908D01*
X24545Y-24889D01*
X24564Y-24851D01*
X24603Y-24832D01*
X24660Y-24832D01*
X24698Y-24813D01*
X24717Y-24774D01*
X24717Y-24755D01*
X24698Y-24717D01*
X24660Y-24698D01*
X24603Y-24698D01*
X24564Y-24717D01*
X24221Y-24946D02*
X24259Y-24965D01*
X24336Y-24965D01*
X24374Y-24946D01*
X24393Y-24908D01*
X24393Y-24755D01*
X24374Y-24717D01*
X24336Y-24698D01*
X24259Y-24698D01*
X24221Y-24717D01*
X24202Y-24755D01*
X24202Y-24793D01*
X24393Y-24832D01*
X28948Y-23962D02*
X28910Y-23981D01*
X28834Y-23981D01*
X28795Y-23962D01*
X28776Y-23924D01*
X28776Y-23905D01*
X28795Y-23867D01*
X28834Y-23848D01*
X28891Y-23848D01*
X28929Y-23829D01*
X28948Y-23790D01*
X28948Y-23771D01*
X28929Y-23733D01*
X28891Y-23714D01*
X28834Y-23714D01*
X28795Y-23733D01*
X28452Y-23962D02*
X28490Y-23981D01*
X28567Y-23981D01*
X28605Y-23962D01*
X28624Y-23924D01*
X28624Y-23771D01*
X28605Y-23733D01*
X28567Y-23714D01*
X28490Y-23714D01*
X28452Y-23733D01*
X28433Y-23771D01*
X28433Y-23809D01*
X28624Y-23848D01*
X28262Y-23714D02*
X28262Y-23981D01*
X28262Y-23752D02*
X28243Y-23733D01*
X28205Y-23714D01*
X28147Y-23714D01*
X28109Y-23733D01*
X28090Y-23771D01*
X28090Y-23981D01*
X27919Y-23962D02*
X27881Y-23981D01*
X27805Y-23981D01*
X27766Y-23962D01*
X27747Y-23924D01*
X27747Y-23905D01*
X27766Y-23867D01*
X27805Y-23848D01*
X27862Y-23848D01*
X27900Y-23829D01*
X27919Y-23790D01*
X27919Y-23771D01*
X27900Y-23733D01*
X27862Y-23714D01*
X27805Y-23714D01*
X27766Y-23733D01*
X27423Y-23962D02*
X27461Y-23981D01*
X27538Y-23981D01*
X27576Y-23962D01*
X27595Y-23924D01*
X27595Y-23771D01*
X27576Y-23733D01*
X27538Y-23714D01*
X27461Y-23714D01*
X27423Y-23733D01*
X27404Y-23771D01*
X27404Y-23809D01*
X27595Y-23848D01*
X26947Y-23962D02*
X26909Y-23981D01*
X26833Y-23981D01*
X26794Y-23962D01*
X26775Y-23924D01*
X26775Y-23905D01*
X26794Y-23867D01*
X26833Y-23848D01*
X26890Y-23848D01*
X26928Y-23829D01*
X26947Y-23790D01*
X26947Y-23771D01*
X26928Y-23733D01*
X26890Y-23714D01*
X26833Y-23714D01*
X26794Y-23733D01*
X26661Y-23714D02*
X26509Y-23714D01*
X26604Y-23581D02*
X26604Y-23924D01*
X26585Y-23962D01*
X26547Y-23981D01*
X26509Y-23981D01*
X26318Y-23981D02*
X26356Y-23962D01*
X26375Y-23943D01*
X26394Y-23905D01*
X26394Y-23790D01*
X26375Y-23752D01*
X26356Y-23733D01*
X26318Y-23714D01*
X26260Y-23714D01*
X26222Y-23733D01*
X26203Y-23752D01*
X26184Y-23790D01*
X26184Y-23905D01*
X26203Y-23943D01*
X26222Y-23962D01*
X26260Y-23981D01*
X26318Y-23981D01*
X26013Y-23981D02*
X26013Y-23714D01*
X26013Y-23790D02*
X25994Y-23752D01*
X25975Y-23733D01*
X25937Y-23714D01*
X25898Y-23714D01*
X25612Y-23962D02*
X25650Y-23981D01*
X25727Y-23981D01*
X25765Y-23962D01*
X25784Y-23924D01*
X25784Y-23771D01*
X25765Y-23733D01*
X25727Y-23714D01*
X25650Y-23714D01*
X25612Y-23733D01*
X25593Y-23771D01*
X25593Y-23809D01*
X25784Y-23848D01*
X24945Y-23714D02*
X24945Y-24038D01*
X24964Y-24076D01*
X24983Y-24095D01*
X25022Y-24114D01*
X25079Y-24114D01*
X25117Y-24095D01*
X24945Y-23962D02*
X24983Y-23981D01*
X25060Y-23981D01*
X25098Y-23962D01*
X25117Y-23943D01*
X25136Y-23905D01*
X25136Y-23790D01*
X25117Y-23752D01*
X25098Y-23733D01*
X25060Y-23714D01*
X24983Y-23714D01*
X24945Y-23733D01*
X24755Y-23714D02*
X24755Y-23981D01*
X24755Y-23752D02*
X24736Y-23733D01*
X24698Y-23714D01*
X24640Y-23714D01*
X24602Y-23733D01*
X24583Y-23771D01*
X24583Y-23981D01*
X24221Y-23981D02*
X24221Y-23581D01*
X24221Y-23962D02*
X24259Y-23981D01*
X24336Y-23981D01*
X24374Y-23962D01*
X24393Y-23943D01*
X24412Y-23905D01*
X24412Y-23790D01*
X24393Y-23752D01*
X24374Y-23733D01*
X24336Y-23714D01*
X24259Y-23714D01*
X24221Y-23733D01*
G54D14*
G36*
X43160Y-26181D02*
X43183Y-26169D01*
X43234Y-26137D01*
X43307Y-26089D01*
X43394Y-26031D01*
X43481Y-25972D01*
X43552Y-25924D01*
X43602Y-25892D01*
X43623Y-25881D01*
X43634Y-25885D01*
X43675Y-25905D01*
X43735Y-25936D01*
X43770Y-25954D01*
X43825Y-25977D01*
X43852Y-25982D01*
X43857Y-25975D01*
X43877Y-25933D01*
X43908Y-25861D01*
X43950Y-25766D01*
X43997Y-25655D01*
X44048Y-25535D01*
X44099Y-25413D01*
X44147Y-25296D01*
X44190Y-25191D01*
X44224Y-25106D01*
X44247Y-25047D01*
X44255Y-25021D01*
X44253Y-25016D01*
X44225Y-24989D01*
X44177Y-24953D01*
X44074Y-24869D01*
X43971Y-24741D01*
X43909Y-24596D01*
X43888Y-24435D01*
X43906Y-24285D01*
X43965Y-24141D01*
X44065Y-24012D01*
X44186Y-23916D01*
X44328Y-23855D01*
X44488Y-23836D01*
X44641Y-23853D01*
X44787Y-23911D01*
X44917Y-24009D01*
X44971Y-24072D01*
X45046Y-24203D01*
X45089Y-24343D01*
X45094Y-24379D01*
X45087Y-24533D01*
X45042Y-24680D01*
X44961Y-24812D01*
X44848Y-24920D01*
X44834Y-24931D01*
X44781Y-24970D01*
X44746Y-24997D01*
X44719Y-25019D01*
X44915Y-25491D01*
X44946Y-25566D01*
X45000Y-25695D01*
X45047Y-25806D01*
X45085Y-25894D01*
X45111Y-25953D01*
X45123Y-25977D01*
X45124Y-25978D01*
X45141Y-25981D01*
X45177Y-25968D01*
X45243Y-25936D01*
X45287Y-25914D01*
X45337Y-25890D01*
X45359Y-25881D01*
X45378Y-25891D01*
X45426Y-25922D01*
X45496Y-25969D01*
X45581Y-26027D01*
X45661Y-26081D01*
X45735Y-26130D01*
X45789Y-26164D01*
X45815Y-26178D01*
X45819Y-26178D01*
X45842Y-26165D01*
X45884Y-26130D01*
X45949Y-26069D01*
X46040Y-25979D01*
X46054Y-25966D01*
X46128Y-25890D01*
X46189Y-25826D01*
X46230Y-25781D01*
X46244Y-25760D01*
X46244Y-25760D01*
X46231Y-25734D01*
X46197Y-25681D01*
X46148Y-25606D01*
X46088Y-25518D01*
X45932Y-25291D01*
X46018Y-25077D01*
X46044Y-25012D01*
X46078Y-24932D01*
X46103Y-24875D01*
X46115Y-24850D01*
X46139Y-24842D01*
X46197Y-24828D01*
X46282Y-24810D01*
X46384Y-24791D01*
X46480Y-24774D01*
X46567Y-24757D01*
X46631Y-24745D01*
X46659Y-24739D01*
X46666Y-24735D01*
X46671Y-24722D01*
X46675Y-24692D01*
X46677Y-24639D01*
X46678Y-24555D01*
X46678Y-24435D01*
X46678Y-24422D01*
X46677Y-24306D01*
X46675Y-24215D01*
X46672Y-24154D01*
X46668Y-24131D01*
X46668Y-24130D01*
X46641Y-24124D01*
X46579Y-24111D01*
X46492Y-24094D01*
X46388Y-24074D01*
X46381Y-24073D01*
X46278Y-24053D01*
X46191Y-24035D01*
X46130Y-24021D01*
X46104Y-24013D01*
X46099Y-24005D01*
X46078Y-23965D01*
X46048Y-23901D01*
X46014Y-23822D01*
X45980Y-23741D01*
X45951Y-23668D01*
X45931Y-23613D01*
X45925Y-23588D01*
X45926Y-23588D01*
X45941Y-23563D01*
X45977Y-23509D01*
X46027Y-23434D01*
X46088Y-23346D01*
X46092Y-23340D01*
X46152Y-23252D01*
X46200Y-23178D01*
X46232Y-23125D01*
X46244Y-23101D01*
X46244Y-23100D01*
X46224Y-23074D01*
X46180Y-23024D01*
X46116Y-22957D01*
X46039Y-22880D01*
X46015Y-22856D01*
X45930Y-22773D01*
X45870Y-22718D01*
X45834Y-22689D01*
X45816Y-22683D01*
X45815Y-22683D01*
X45789Y-22699D01*
X45734Y-22735D01*
X45659Y-22786D01*
X45570Y-22847D01*
X45564Y-22851D01*
X45476Y-22910D01*
X45403Y-22960D01*
X45351Y-22994D01*
X45329Y-23008D01*
X45325Y-23008D01*
X45289Y-22997D01*
X45227Y-22975D01*
X45150Y-22946D01*
X45069Y-22913D01*
X44996Y-22882D01*
X44940Y-22857D01*
X44914Y-22842D01*
X44914Y-22841D01*
X44904Y-22810D01*
X44889Y-22744D01*
X44871Y-22654D01*
X44850Y-22547D01*
X44847Y-22529D01*
X44827Y-22425D01*
X44810Y-22339D01*
X44798Y-22279D01*
X44792Y-22255D01*
X44777Y-22251D01*
X44726Y-22247D01*
X44648Y-22245D01*
X44554Y-22244D01*
X44455Y-22245D01*
X44358Y-22247D01*
X44275Y-22250D01*
X44216Y-22254D01*
X44192Y-22259D01*
X44191Y-22260D01*
X44182Y-22293D01*
X44167Y-22358D01*
X44149Y-22449D01*
X44128Y-22557D01*
X44124Y-22576D01*
X44105Y-22680D01*
X44087Y-22765D01*
X44075Y-22824D01*
X44068Y-22847D01*
X44059Y-22852D01*
X44016Y-22871D01*
X43946Y-22900D01*
X43860Y-22935D01*
X43659Y-23016D01*
X43413Y-22847D01*
X43390Y-22832D01*
X43302Y-22772D01*
X43229Y-22723D01*
X43179Y-22691D01*
X43158Y-22679D01*
X43156Y-22680D01*
X43132Y-22701D01*
X43083Y-22747D01*
X43016Y-22812D01*
X42939Y-22889D01*
X42882Y-22946D01*
X42814Y-23015D01*
X42771Y-23061D01*
X42748Y-23091D01*
X42739Y-23109D01*
X42741Y-23121D01*
X42757Y-23146D01*
X42793Y-23200D01*
X42844Y-23275D01*
X42904Y-23362D01*
X42953Y-23434D01*
X43006Y-23517D01*
X43041Y-23576D01*
X43053Y-23605D01*
X43050Y-23617D01*
X43033Y-23665D01*
X43004Y-23738D01*
X42967Y-23824D01*
X42881Y-24019D01*
X42754Y-24044D01*
X42676Y-24058D01*
X42568Y-24079D01*
X42465Y-24099D01*
X42303Y-24130D01*
X42297Y-24724D01*
X42322Y-24735D01*
X42346Y-24741D01*
X42406Y-24755D01*
X42492Y-24772D01*
X42592Y-24791D01*
X42678Y-24807D01*
X42765Y-24823D01*
X42827Y-24835D01*
X42855Y-24841D01*
X42862Y-24850D01*
X42883Y-24892D01*
X42914Y-24959D01*
X42948Y-25039D01*
X42983Y-25122D01*
X43013Y-25199D01*
X43035Y-25257D01*
X43043Y-25288D01*
X43031Y-25310D01*
X42998Y-25361D01*
X42950Y-25434D01*
X42892Y-25520D01*
X42833Y-25606D01*
X42783Y-25679D01*
X42749Y-25732D01*
X42734Y-25756D01*
X42741Y-25773D01*
X42776Y-25814D01*
X42841Y-25882D01*
X42937Y-25977D01*
X42953Y-25992D01*
X43030Y-26066D01*
X43095Y-26126D01*
X43140Y-26166D01*
X43160Y-26181D01*
X43160Y-26181D01*
G37*
G36*
X57630Y-25928D02*
X57679Y-25922D01*
X57725Y-25906D01*
X57745Y-25896D01*
X57786Y-25867D01*
X57820Y-25831D01*
X57845Y-25789D01*
X57862Y-25744D01*
X57869Y-25697D01*
X57868Y-25649D01*
X57856Y-25601D01*
X57834Y-25554D01*
X57820Y-25535D01*
X57799Y-25512D01*
X57777Y-25491D01*
X57756Y-25476D01*
X57749Y-25472D01*
X57707Y-25451D01*
X57663Y-25441D01*
X57614Y-25439D01*
X57598Y-25440D01*
X57571Y-25443D01*
X57547Y-25450D01*
X57521Y-25461D01*
X57493Y-25476D01*
X57453Y-25508D01*
X57421Y-25547D01*
X57397Y-25592D01*
X57390Y-25613D01*
X57383Y-25637D01*
X57381Y-25656D01*
X57380Y-25658D01*
X57380Y-25659D01*
X57378Y-25649D01*
X57378Y-25647D01*
X57370Y-25616D01*
X57358Y-25584D01*
X57344Y-25556D01*
X57317Y-25519D01*
X57279Y-25485D01*
X57236Y-25459D01*
X57188Y-25444D01*
X57136Y-25438D01*
X57123Y-25439D01*
X57084Y-25443D01*
X57047Y-25454D01*
X57040Y-25457D01*
X56998Y-25479D01*
X56962Y-25510D01*
X56931Y-25547D01*
X56908Y-25588D01*
X56895Y-25632D01*
X56894Y-25634D01*
X56892Y-25646D01*
X56890Y-25650D01*
X56890Y-25650D01*
X56888Y-25644D01*
X56885Y-25632D01*
X56884Y-25627D01*
X56870Y-25584D01*
X56846Y-25543D01*
X56814Y-25506D01*
X56786Y-25482D01*
X56743Y-25457D01*
X56696Y-25443D01*
X56644Y-25438D01*
X56608Y-25441D01*
X56559Y-25453D01*
X56514Y-25476D01*
X56475Y-25507D01*
X56443Y-25545D01*
X56439Y-25552D01*
X56428Y-25570D01*
X56420Y-25585D01*
X56416Y-25596D01*
X56409Y-25618D01*
X56404Y-25639D01*
X56402Y-25656D01*
X56401Y-25658D01*
X56400Y-25658D01*
X56399Y-25648D01*
X56393Y-25621D01*
X56381Y-25588D01*
X56366Y-25558D01*
X56337Y-25518D01*
X56300Y-25484D01*
X56256Y-25459D01*
X56208Y-25444D01*
X56157Y-25438D01*
X56111Y-25442D01*
X56063Y-25455D01*
X56019Y-25479D01*
X55980Y-25513D01*
X55961Y-25534D01*
X55942Y-25561D01*
X55928Y-25592D01*
X55919Y-25618D01*
X55911Y-25667D01*
X55912Y-25715D01*
X55923Y-25761D01*
X55942Y-25803D01*
X55969Y-25842D01*
X56002Y-25875D01*
X56042Y-25900D01*
X56087Y-25918D01*
X56137Y-25927D01*
X56141Y-25927D01*
X56191Y-25925D01*
X56238Y-25914D01*
X56283Y-25892D01*
X56299Y-25882D01*
X56331Y-25853D01*
X56360Y-25818D01*
X56380Y-25781D01*
X56386Y-25768D01*
X56392Y-25746D01*
X56397Y-25725D01*
X56400Y-25709D01*
X56400Y-25699D01*
X56401Y-25709D01*
X56402Y-25716D01*
X56407Y-25739D01*
X56414Y-25763D01*
X56422Y-25783D01*
X56433Y-25806D01*
X56463Y-25846D01*
X56501Y-25880D01*
X56544Y-25906D01*
X56593Y-25923D01*
X56601Y-25924D01*
X56635Y-25927D01*
X56670Y-25926D01*
X56702Y-25921D01*
X56735Y-25911D01*
X56781Y-25887D01*
X56821Y-25854D01*
X56824Y-25851D01*
X56851Y-25816D01*
X56873Y-25775D01*
X56885Y-25733D01*
X56886Y-25731D01*
X56889Y-25720D01*
X56890Y-25715D01*
X56891Y-25718D01*
X56893Y-25729D01*
X56894Y-25732D01*
X56901Y-25757D01*
X56912Y-25786D01*
X56926Y-25812D01*
X56948Y-25842D01*
X56985Y-25877D01*
X57028Y-25903D01*
X57077Y-25921D01*
X57085Y-25923D01*
X57118Y-25927D01*
X57154Y-25927D01*
X57185Y-25923D01*
X57213Y-25915D01*
X57259Y-25894D01*
X57299Y-25864D01*
X57333Y-25827D01*
X57358Y-25783D01*
X57364Y-25769D01*
X57371Y-25747D01*
X57376Y-25726D01*
X57378Y-25709D01*
X57379Y-25707D01*
X57379Y-25706D01*
X57381Y-25716D01*
X57381Y-25718D01*
X57389Y-25749D01*
X57401Y-25782D01*
X57415Y-25810D01*
X57422Y-25820D01*
X57453Y-25857D01*
X57492Y-25888D01*
X57534Y-25911D01*
X57581Y-25924D01*
X57630Y-25928D01*
X57630Y-25928D01*
G37*
G36*
X55650Y-25438D02*
X55680Y-25437D01*
X55708Y-25434D01*
X55741Y-25426D01*
X55787Y-25405D01*
X55827Y-25376D01*
X55861Y-25340D01*
X55887Y-25297D01*
X55903Y-25251D01*
X55910Y-25201D01*
X55907Y-25152D01*
X55894Y-25104D01*
X55872Y-25061D01*
X55841Y-25022D01*
X55802Y-24989D01*
X55789Y-24981D01*
X55742Y-24960D01*
X55693Y-24949D01*
X55642Y-24948D01*
X55592Y-24959D01*
X55552Y-24975D01*
X55509Y-25004D01*
X55474Y-25040D01*
X55446Y-25083D01*
X55427Y-25133D01*
X55423Y-25157D01*
X55421Y-25189D01*
X55422Y-25220D01*
X55426Y-25247D01*
X55428Y-25256D01*
X55448Y-25305D01*
X55476Y-25349D01*
X55513Y-25385D01*
X55558Y-25413D01*
X55579Y-25422D01*
X55607Y-25431D01*
X55633Y-25436D01*
X55650Y-25438D01*
X55650Y-25438D01*
G37*
G36*
X58120Y-25438D02*
X58170Y-25432D01*
X58219Y-25414D01*
X58265Y-25386D01*
X58274Y-25379D01*
X58308Y-25343D01*
X58335Y-25301D01*
X58353Y-25253D01*
X58357Y-25228D01*
X58359Y-25196D01*
X58358Y-25165D01*
X58354Y-25139D01*
X58351Y-25127D01*
X58332Y-25079D01*
X58303Y-25037D01*
X58268Y-25001D01*
X58226Y-24974D01*
X58179Y-24956D01*
X58128Y-24948D01*
X58109Y-24947D01*
X58060Y-24953D01*
X58014Y-24969D01*
X57972Y-24993D01*
X57936Y-25024D01*
X57907Y-25062D01*
X57886Y-25105D01*
X57873Y-25153D01*
X57870Y-25204D01*
X57873Y-25234D01*
X57879Y-25260D01*
X57889Y-25289D01*
X57909Y-25326D01*
X57940Y-25365D01*
X57979Y-25396D01*
X58023Y-25420D01*
X58070Y-25434D01*
X58120Y-25438D01*
X58120Y-25438D01*
G37*
G36*
X55162Y-24946D02*
X55196Y-24946D01*
X55227Y-24943D01*
X55262Y-24932D01*
X55307Y-24909D01*
X55348Y-24876D01*
X55374Y-24845D01*
X55399Y-24803D01*
X55415Y-24755D01*
X55418Y-24736D01*
X55420Y-24707D01*
X55419Y-24677D01*
X55416Y-24652D01*
X55412Y-24637D01*
X55392Y-24589D01*
X55364Y-24546D01*
X55328Y-24511D01*
X55284Y-24483D01*
X55267Y-24475D01*
X55235Y-24465D01*
X55204Y-24459D01*
X55166Y-24459D01*
X55143Y-24460D01*
X55117Y-24464D01*
X55093Y-24471D01*
X55066Y-24483D01*
X55050Y-24492D01*
X55009Y-24522D01*
X54976Y-24560D01*
X54950Y-24604D01*
X54934Y-24654D01*
X54933Y-24666D01*
X54931Y-24695D01*
X54931Y-24725D01*
X54935Y-24751D01*
X54939Y-24768D01*
X54958Y-24816D01*
X54986Y-24859D01*
X55022Y-24894D01*
X55065Y-24921D01*
X55115Y-24940D01*
X55129Y-24943D01*
X55162Y-24946D01*
X55162Y-24946D01*
G37*
G36*
X57128Y-24947D02*
X57178Y-24944D01*
X57224Y-24931D01*
X57251Y-24918D01*
X57293Y-24889D01*
X57328Y-24853D01*
X57355Y-24810D01*
X57372Y-24762D01*
X57375Y-24752D01*
X57380Y-24712D01*
X57378Y-24674D01*
X57369Y-24631D01*
X57349Y-24584D01*
X57320Y-24543D01*
X57284Y-24508D01*
X57240Y-24482D01*
X57190Y-24464D01*
X57159Y-24456D01*
X57175Y-24454D01*
X57179Y-24454D01*
X57214Y-24444D01*
X57251Y-24428D01*
X57285Y-24406D01*
X57290Y-24401D01*
X57326Y-24366D01*
X57353Y-24324D01*
X57370Y-24279D01*
X57379Y-24231D01*
X57378Y-24183D01*
X57367Y-24135D01*
X57346Y-24089D01*
X57345Y-24087D01*
X57314Y-24047D01*
X57277Y-24014D01*
X57236Y-23990D01*
X57191Y-23975D01*
X57144Y-23969D01*
X57097Y-23971D01*
X57050Y-23983D01*
X57006Y-24005D01*
X56966Y-24035D01*
X56944Y-24059D01*
X56920Y-24095D01*
X56903Y-24132D01*
X56893Y-24169D01*
X56892Y-24178D01*
X56890Y-24183D01*
X56889Y-24180D01*
X56887Y-24169D01*
X56878Y-24136D01*
X56863Y-24101D01*
X56843Y-24068D01*
X56831Y-24053D01*
X56794Y-24018D01*
X56751Y-23992D01*
X56704Y-23975D01*
X56655Y-23968D01*
X56604Y-23972D01*
X56574Y-23979D01*
X56527Y-23999D01*
X56486Y-24028D01*
X56451Y-24064D01*
X56425Y-24106D01*
X56408Y-24154D01*
X56403Y-24179D01*
X56401Y-24229D01*
X56409Y-24278D01*
X56427Y-24324D01*
X56454Y-24366D01*
X56490Y-24401D01*
X56533Y-24430D01*
X56553Y-24439D01*
X56575Y-24447D01*
X56597Y-24453D01*
X56612Y-24456D01*
X56614Y-24456D01*
X56614Y-24457D01*
X56603Y-24460D01*
X56579Y-24467D01*
X56546Y-24479D01*
X56518Y-24493D01*
X56503Y-24503D01*
X56470Y-24532D01*
X56442Y-24567D01*
X56420Y-24604D01*
X56407Y-24644D01*
X56401Y-24688D01*
X56402Y-24731D01*
X56403Y-24740D01*
X56417Y-24790D01*
X56440Y-24835D01*
X56473Y-24876D01*
X56500Y-24900D01*
X56544Y-24926D01*
X56592Y-24943D01*
X56612Y-24945D01*
X56638Y-24946D01*
X56666Y-24945D01*
X56692Y-24943D01*
X56712Y-24939D01*
X56728Y-24934D01*
X56776Y-24910D01*
X56816Y-24878D01*
X56850Y-24838D01*
X56861Y-24819D01*
X56876Y-24785D01*
X56885Y-24753D01*
X56886Y-24751D01*
X56889Y-24739D01*
X56890Y-24735D01*
X56890Y-24735D01*
X56890Y-24670D01*
X56890Y-24670D01*
X56888Y-24664D01*
X56885Y-24652D01*
X56885Y-24649D01*
X56870Y-24605D01*
X56847Y-24563D01*
X56815Y-24527D01*
X56778Y-24496D01*
X56737Y-24475D01*
X56734Y-24474D01*
X56712Y-24467D01*
X56692Y-24462D01*
X56670Y-24457D01*
X56691Y-24453D01*
X56720Y-24446D01*
X56764Y-24427D01*
X56804Y-24399D01*
X56838Y-24364D01*
X56864Y-24324D01*
X56873Y-24303D01*
X56882Y-24278D01*
X56887Y-24257D01*
X56888Y-24248D01*
X56890Y-24243D01*
X56891Y-24246D01*
X56893Y-24257D01*
X56897Y-24275D01*
X56906Y-24300D01*
X56916Y-24324D01*
X56931Y-24350D01*
X56963Y-24387D01*
X57001Y-24418D01*
X57044Y-24440D01*
X57090Y-24453D01*
X57111Y-24457D01*
X57089Y-24462D01*
X57086Y-24462D01*
X57064Y-24468D01*
X57044Y-24475D01*
X57039Y-24477D01*
X56998Y-24499D01*
X56961Y-24530D01*
X56931Y-24567D01*
X56908Y-24608D01*
X56895Y-24652D01*
X56894Y-24654D01*
X56892Y-24666D01*
X56890Y-24670D01*
X56890Y-24735D01*
X56890Y-24735D01*
X56892Y-24741D01*
X56895Y-24753D01*
X56903Y-24785D01*
X56924Y-24829D01*
X56954Y-24868D01*
X56990Y-24901D01*
X57033Y-24926D01*
X57033Y-24926D01*
X57079Y-24941D01*
X57128Y-24947D01*
X57128Y-24947D01*
G37*
G36*
X58587Y-24946D02*
X58627Y-24946D01*
X58663Y-24941D01*
X58686Y-24934D01*
X58732Y-24912D01*
X58772Y-24882D01*
X58805Y-24845D01*
X58829Y-24802D01*
X58844Y-24754D01*
X58850Y-24703D01*
X58849Y-24682D01*
X58840Y-24632D01*
X58820Y-24585D01*
X58789Y-24541D01*
X58781Y-24531D01*
X58746Y-24502D01*
X58705Y-24479D01*
X58662Y-24464D01*
X58661Y-24464D01*
X58624Y-24459D01*
X58585Y-24459D01*
X58548Y-24464D01*
X58534Y-24468D01*
X58488Y-24487D01*
X58447Y-24515D01*
X58414Y-24549D01*
X58387Y-24589D01*
X58369Y-24634D01*
X58360Y-24681D01*
X58361Y-24730D01*
X58372Y-24780D01*
X58388Y-24817D01*
X58417Y-24860D01*
X58453Y-24895D01*
X58496Y-24922D01*
X58543Y-24940D01*
X58549Y-24941D01*
X58587Y-24946D01*
X58587Y-24946D01*
G37*
G36*
X56163Y-23479D02*
X56211Y-23472D01*
X56259Y-23456D01*
X56281Y-23444D01*
X56303Y-23429D01*
X56326Y-23408D01*
X56351Y-23381D01*
X56377Y-23340D01*
X56394Y-23292D01*
X56396Y-23279D01*
X56400Y-23246D01*
X56400Y-23212D01*
X56396Y-23181D01*
X56383Y-23141D01*
X56360Y-23098D01*
X56330Y-23061D01*
X56325Y-23056D01*
X56302Y-23038D01*
X56276Y-23020D01*
X56251Y-23007D01*
X56243Y-23004D01*
X56223Y-22998D01*
X56203Y-22993D01*
X56188Y-22990D01*
X56180Y-22990D01*
X56189Y-22987D01*
X56201Y-22984D01*
X56216Y-22981D01*
X56234Y-22976D01*
X56271Y-22959D01*
X56307Y-22936D01*
X56336Y-22909D01*
X56341Y-22904D01*
X56370Y-22861D01*
X56390Y-22815D01*
X56400Y-22767D01*
X56399Y-22717D01*
X56398Y-22705D01*
X56384Y-22655D01*
X56361Y-22611D01*
X56328Y-22570D01*
X56298Y-22544D01*
X56256Y-22519D01*
X56208Y-22503D01*
X56198Y-22501D01*
X56165Y-22499D01*
X56130Y-22500D01*
X56099Y-22504D01*
X56072Y-22513D01*
X56026Y-22535D01*
X55987Y-22565D01*
X55955Y-22602D01*
X55930Y-22645D01*
X55916Y-22692D01*
X55915Y-22698D01*
X55911Y-22709D01*
X55909Y-22713D01*
X55908Y-22708D01*
X55907Y-22698D01*
X55902Y-22678D01*
X55894Y-22656D01*
X55886Y-22636D01*
X55878Y-22622D01*
X55848Y-22579D01*
X55810Y-22545D01*
X55767Y-22520D01*
X55719Y-22504D01*
X55667Y-22499D01*
X55627Y-22501D01*
X55580Y-22513D01*
X55537Y-22535D01*
X55512Y-22552D01*
X55476Y-22588D01*
X55449Y-22629D01*
X55430Y-22674D01*
X55421Y-22722D01*
X55422Y-22772D01*
X55432Y-22818D01*
X55453Y-22865D01*
X55482Y-22906D01*
X55519Y-22940D01*
X55563Y-22966D01*
X55613Y-22983D01*
X55641Y-22990D01*
X55626Y-22991D01*
X55615Y-22993D01*
X55576Y-23005D01*
X55537Y-23025D01*
X55501Y-23051D01*
X55473Y-23081D01*
X55456Y-23107D01*
X55439Y-23141D01*
X55427Y-23173D01*
X55423Y-23199D01*
X55421Y-23230D01*
X55422Y-23262D01*
X55426Y-23287D01*
X55434Y-23316D01*
X55457Y-23363D01*
X55488Y-23403D01*
X55527Y-23436D01*
X55573Y-23460D01*
X55624Y-23475D01*
X55637Y-23477D01*
X55667Y-23478D01*
X55699Y-23476D01*
X55726Y-23471D01*
X55747Y-23465D01*
X55792Y-23443D01*
X55833Y-23412D01*
X55866Y-23375D01*
X55890Y-23331D01*
X55906Y-23282D01*
X55907Y-23278D01*
X55910Y-23268D01*
X55911Y-23268D01*
X55911Y-23201D01*
X55909Y-23199D01*
X55906Y-23189D01*
X55906Y-23186D01*
X55898Y-23154D01*
X55882Y-23119D01*
X55862Y-23087D01*
X55847Y-23069D01*
X55809Y-23035D01*
X55764Y-23009D01*
X55715Y-22993D01*
X55691Y-22989D01*
X55708Y-22985D01*
X55722Y-22982D01*
X55739Y-22977D01*
X55748Y-22974D01*
X55793Y-22952D01*
X55832Y-22922D01*
X55865Y-22885D01*
X55890Y-22842D01*
X55905Y-22796D01*
X55908Y-22783D01*
X55910Y-22777D01*
X55913Y-22781D01*
X55916Y-22796D01*
X55916Y-22797D01*
X55924Y-22823D01*
X55936Y-22852D01*
X55951Y-22879D01*
X55963Y-22895D01*
X55985Y-22918D01*
X56010Y-22940D01*
X56033Y-22956D01*
X56035Y-22957D01*
X56073Y-22974D01*
X56113Y-22985D01*
X56130Y-22989D01*
X56110Y-22992D01*
X56067Y-23005D01*
X56023Y-23027D01*
X55984Y-23058D01*
X55953Y-23095D01*
X55945Y-23108D01*
X55933Y-23131D01*
X55923Y-23156D01*
X55916Y-23178D01*
X55913Y-23195D01*
X55913Y-23195D01*
X55911Y-23201D01*
X55911Y-23268D01*
X55912Y-23268D01*
X55914Y-23280D01*
X55917Y-23293D01*
X55922Y-23309D01*
X55932Y-23334D01*
X55956Y-23376D01*
X55988Y-23413D01*
X56027Y-23442D01*
X56069Y-23463D01*
X56115Y-23475D01*
X56163Y-23479D01*
X56163Y-23479D01*
G37*
G36*
X57637Y-23479D02*
X57686Y-23471D01*
X57731Y-23454D01*
X57773Y-23428D01*
X57809Y-23395D01*
X57837Y-23355D01*
X57858Y-23309D01*
X57863Y-23293D01*
X57866Y-23280D01*
X57866Y-23276D01*
X57869Y-23267D01*
X57869Y-23267D01*
X57869Y-23199D01*
X57867Y-23192D01*
X57863Y-23175D01*
X57854Y-23147D01*
X57833Y-23103D01*
X57802Y-23065D01*
X57765Y-23033D01*
X57722Y-23008D01*
X57674Y-22993D01*
X57650Y-22989D01*
X57667Y-22985D01*
X57669Y-22985D01*
X57709Y-22973D01*
X57747Y-22956D01*
X57762Y-22946D01*
X57787Y-22926D01*
X57811Y-22902D01*
X57829Y-22879D01*
X57842Y-22857D01*
X57855Y-22826D01*
X57864Y-22797D01*
X57867Y-22783D01*
X57869Y-22777D01*
X57872Y-22781D01*
X57875Y-22795D01*
X57884Y-22827D01*
X57907Y-22873D01*
X57939Y-22913D01*
X57976Y-22945D01*
X58021Y-22970D01*
X58072Y-22985D01*
X58089Y-22989D01*
X58065Y-22993D01*
X58043Y-22999D01*
X57995Y-23019D01*
X57953Y-23049D01*
X57918Y-23087D01*
X57908Y-23101D01*
X57895Y-23123D01*
X57884Y-23150D01*
X57879Y-23167D01*
X57874Y-23186D01*
X57874Y-23187D01*
X57871Y-23197D01*
X57869Y-23199D01*
X57869Y-23267D01*
X57871Y-23269D01*
X57874Y-23281D01*
X57878Y-23298D01*
X57892Y-23335D01*
X57911Y-23370D01*
X57925Y-23389D01*
X57962Y-23425D01*
X58005Y-23453D01*
X58055Y-23471D01*
X58076Y-23475D01*
X58110Y-23478D01*
X58145Y-23476D01*
X58175Y-23471D01*
X58178Y-23470D01*
X58227Y-23451D01*
X58270Y-23422D01*
X58306Y-23386D01*
X58334Y-23343D01*
X58353Y-23293D01*
X58357Y-23271D01*
X58359Y-23238D01*
X58358Y-23203D01*
X58353Y-23173D01*
X58344Y-23147D01*
X58327Y-23112D01*
X58307Y-23081D01*
X58285Y-23057D01*
X58255Y-23033D01*
X58224Y-23014D01*
X58212Y-23008D01*
X58188Y-22999D01*
X58165Y-22993D01*
X58147Y-22990D01*
X58146Y-22990D01*
X58152Y-22987D01*
X58166Y-22983D01*
X58195Y-22975D01*
X58227Y-22961D01*
X58253Y-22946D01*
X58259Y-22942D01*
X58291Y-22913D01*
X58319Y-22879D01*
X58340Y-22842D01*
X58347Y-22824D01*
X58358Y-22775D01*
X58359Y-22724D01*
X58351Y-22675D01*
X58347Y-22664D01*
X58326Y-22619D01*
X58296Y-22579D01*
X58259Y-22546D01*
X58215Y-22520D01*
X58167Y-22503D01*
X58160Y-22502D01*
X58126Y-22499D01*
X58090Y-22500D01*
X58058Y-22505D01*
X58051Y-22507D01*
X58002Y-22526D01*
X57959Y-22554D01*
X57923Y-22591D01*
X57894Y-22636D01*
X57888Y-22650D01*
X57880Y-22672D01*
X57875Y-22693D01*
X57872Y-22708D01*
X57872Y-22711D01*
X57870Y-22713D01*
X57868Y-22706D01*
X57865Y-22693D01*
X57855Y-22659D01*
X57835Y-22616D01*
X57805Y-22578D01*
X57768Y-22545D01*
X57725Y-22520D01*
X57725Y-22519D01*
X57680Y-22504D01*
X57631Y-22499D01*
X57581Y-22502D01*
X57535Y-22515D01*
X57508Y-22528D01*
X57466Y-22557D01*
X57431Y-22593D01*
X57404Y-22636D01*
X57387Y-22684D01*
X57384Y-22694D01*
X57379Y-22734D01*
X57381Y-22772D01*
X57391Y-22817D01*
X57411Y-22864D01*
X57441Y-22905D01*
X57478Y-22939D01*
X57522Y-22966D01*
X57573Y-22983D01*
X57583Y-22986D01*
X57592Y-22989D01*
X57592Y-22990D01*
X57577Y-22992D01*
X57549Y-23000D01*
X57519Y-23013D01*
X57490Y-23029D01*
X57462Y-23050D01*
X57428Y-23087D01*
X57401Y-23132D01*
X57398Y-23140D01*
X57384Y-23188D01*
X57380Y-23238D01*
X57385Y-23288D01*
X57402Y-23335D01*
X57413Y-23357D01*
X57428Y-23380D01*
X57449Y-23403D01*
X57450Y-23405D01*
X57490Y-23438D01*
X57533Y-23461D01*
X57583Y-23475D01*
X57588Y-23476D01*
X57637Y-23479D01*
X57637Y-23479D01*
G37*
%LPC*%
G54D15*
X21161Y-25311D03*
G54D16*
X21161Y-24311D03*
X21161Y-23311D03*
G54D15*
X22146Y-23311D03*
G54D16*
X22146Y-24311D03*
X22146Y-25311D03*
M02*
