G04 (created by PCBNEW (2013-01-23 BZR 3920)-testing) date Thu 24 Jan 2013 01:23:50 AM CET*
%MOIN*%
G04 Gerber Fmt 3.4, Leading zero omitted, Abs format*
%FSLAX34Y34*%
G01*
G70*
G90*
G04 APERTURE LIST*
%ADD10C,2.3622e-06*%
%ADD11R,0.06X0.06*%
%ADD12C,0.06*%
%ADD13C,0.035*%
%ADD14C,0.008*%
%ADD15C,0.0197*%
G04 APERTURE END LIST*
G54D10*
G54D11*
X22146Y-23311D03*
G54D12*
X22146Y-24311D03*
X22146Y-25311D03*
G54D11*
X21161Y-25311D03*
G54D12*
X21161Y-24311D03*
X21161Y-23311D03*
G54D13*
X23917Y-24311D03*
X24508Y-24311D03*
X23917Y-25394D03*
X23917Y-24803D03*
X24508Y-24803D03*
X23917Y-23228D03*
X23917Y-23819D03*
X24508Y-23819D03*
G54D14*
X24508Y-24311D02*
X23917Y-24311D01*
X24508Y-24803D02*
X23917Y-24803D01*
X24508Y-24311D02*
X24508Y-23819D01*
X22146Y-23328D02*
X23129Y-24311D01*
X23129Y-24311D02*
X24508Y-24311D01*
X22146Y-23311D02*
X22146Y-23328D01*
X23917Y-23819D02*
X23917Y-23228D01*
G54D10*
G36*
X24704Y-26401D02*
X22644Y-26401D01*
X22644Y-25212D01*
X22644Y-24212D01*
X22568Y-24028D01*
X22428Y-23888D01*
X22245Y-23812D01*
X22047Y-23812D01*
X21863Y-23888D01*
X21723Y-24028D01*
X21659Y-24182D01*
X21659Y-23212D01*
X21583Y-23028D01*
X21443Y-22888D01*
X21260Y-22812D01*
X21062Y-22812D01*
X20878Y-22888D01*
X20738Y-23028D01*
X20662Y-23211D01*
X20662Y-23409D01*
X20738Y-23593D01*
X20878Y-23733D01*
X21061Y-23809D01*
X21259Y-23809D01*
X21443Y-23733D01*
X21583Y-23593D01*
X21659Y-23410D01*
X21659Y-23212D01*
X21659Y-24182D01*
X21653Y-24197D01*
X21583Y-24028D01*
X21443Y-23888D01*
X21260Y-23812D01*
X21062Y-23812D01*
X20878Y-23888D01*
X20738Y-24028D01*
X20662Y-24211D01*
X20662Y-24409D01*
X20738Y-24593D01*
X20878Y-24733D01*
X21061Y-24809D01*
X21259Y-24809D01*
X21443Y-24733D01*
X21583Y-24593D01*
X21653Y-24424D01*
X21723Y-24593D01*
X21863Y-24733D01*
X22046Y-24809D01*
X22244Y-24809D01*
X22428Y-24733D01*
X22568Y-24593D01*
X22644Y-24410D01*
X22644Y-24212D01*
X22644Y-25212D01*
X22568Y-25028D01*
X22428Y-24888D01*
X22245Y-24812D01*
X22047Y-24812D01*
X21863Y-24888D01*
X21723Y-25028D01*
X21647Y-25211D01*
X21647Y-25409D01*
X21723Y-25593D01*
X21863Y-25733D01*
X22046Y-25809D01*
X22244Y-25809D01*
X22428Y-25733D01*
X22568Y-25593D01*
X22644Y-25410D01*
X22644Y-25212D01*
X22644Y-26401D01*
X20546Y-26401D01*
X20546Y-22219D01*
X24704Y-22219D01*
X24704Y-26401D01*
X24704Y-26401D01*
G37*
G54D15*
X24704Y-26401D02*
X22644Y-26401D01*
X22644Y-25212D01*
X22644Y-24212D01*
X22568Y-24028D01*
X22428Y-23888D01*
X22245Y-23812D01*
X22047Y-23812D01*
X21863Y-23888D01*
X21723Y-24028D01*
X21659Y-24182D01*
X21659Y-23212D01*
X21583Y-23028D01*
X21443Y-22888D01*
X21260Y-22812D01*
X21062Y-22812D01*
X20878Y-22888D01*
X20738Y-23028D01*
X20662Y-23211D01*
X20662Y-23409D01*
X20738Y-23593D01*
X20878Y-23733D01*
X21061Y-23809D01*
X21259Y-23809D01*
X21443Y-23733D01*
X21583Y-23593D01*
X21659Y-23410D01*
X21659Y-23212D01*
X21659Y-24182D01*
X21653Y-24197D01*
X21583Y-24028D01*
X21443Y-23888D01*
X21260Y-23812D01*
X21062Y-23812D01*
X20878Y-23888D01*
X20738Y-24028D01*
X20662Y-24211D01*
X20662Y-24409D01*
X20738Y-24593D01*
X20878Y-24733D01*
X21061Y-24809D01*
X21259Y-24809D01*
X21443Y-24733D01*
X21583Y-24593D01*
X21653Y-24424D01*
X21723Y-24593D01*
X21863Y-24733D01*
X22046Y-24809D01*
X22244Y-24809D01*
X22428Y-24733D01*
X22568Y-24593D01*
X22644Y-24410D01*
X22644Y-24212D01*
X22644Y-25212D01*
X22568Y-25028D01*
X22428Y-24888D01*
X22245Y-24812D01*
X22047Y-24812D01*
X21863Y-24888D01*
X21723Y-25028D01*
X21647Y-25211D01*
X21647Y-25409D01*
X21723Y-25593D01*
X21863Y-25733D01*
X22046Y-25809D01*
X22244Y-25809D01*
X22428Y-25733D01*
X22568Y-25593D01*
X22644Y-25410D01*
X22644Y-25212D01*
X22644Y-26401D01*
X20546Y-26401D01*
X20546Y-22219D01*
X24704Y-22219D01*
X24704Y-26401D01*
M02*
