M48
INCH,TZ
T1C0.020
T2C0.032
%
G90
G05
T1
X024508Y-024311
X025394Y-023327
X025394Y-024311
X025394Y-025295
X027756Y-023425
X031102Y-023622
X034449Y-023819
X037795Y-024016
X041240Y-024213
X044488Y-024409
X047835Y-024606
X051181Y-024803
X054429Y-025000
X057677Y-025197
T2
X021161Y-023311
X021161Y-024311
X021161Y-025311
X022146Y-023311
X022146Y-024311
X022146Y-025311
T0
M30
