G04 (created by PCBNEW-RS274X (2012-jan-04)-stable) date Wed 18 Jul 2012 10:47:17 AM CEST*
G01*
G70*
G90*
%MOIN*%
G04 Gerber Fmt 3.4, Leading zero omitted, Abs format*
%FSLAX34Y34*%
G04 APERTURE LIST*
%ADD10C,0.006000*%
%ADD11R,0.039300X0.043300*%
%ADD12R,0.051100X0.059000*%
%ADD13R,0.055000X0.055000*%
%ADD14C,0.055000*%
%ADD15C,0.008000*%
%ADD16C,0.019700*%
G04 APERTURE END LIST*
G54D10*
G54D11*
X32442Y-41142D03*
X33110Y-41142D03*
G54D12*
X30394Y-41339D03*
X29646Y-41339D03*
G54D13*
X66240Y-42224D03*
X29512Y-42421D03*
G54D14*
X30512Y-42421D03*
X31512Y-42421D03*
G54D13*
X29512Y-43406D03*
G54D14*
X30512Y-43406D03*
X31512Y-43406D03*
G54D13*
X35728Y-43504D03*
G54D11*
X32442Y-44685D03*
X33110Y-44685D03*
G54D12*
X30394Y-44488D03*
X29646Y-44488D03*
G54D15*
X33110Y-41142D02*
X34449Y-41142D01*
X65355Y-41339D02*
X66240Y-42224D01*
X34646Y-41339D02*
X65355Y-41339D01*
X34449Y-41142D02*
X34646Y-41339D01*
X29646Y-41339D02*
X29646Y-42287D01*
X29646Y-42287D02*
X29512Y-42421D01*
X29646Y-41339D02*
X29646Y-40826D01*
X31890Y-41142D02*
X32442Y-41142D01*
X31496Y-40748D02*
X31890Y-41142D01*
X29724Y-40748D02*
X31496Y-40748D01*
X29646Y-40826D02*
X29724Y-40748D01*
X30394Y-41339D02*
X30394Y-42303D01*
X30394Y-42303D02*
X30512Y-42421D01*
X33110Y-44685D02*
X34547Y-44685D01*
X34547Y-44685D02*
X35728Y-43504D01*
X29646Y-44488D02*
X29646Y-43540D01*
X29646Y-43540D02*
X29512Y-43406D01*
X32442Y-44685D02*
X31890Y-44685D01*
X29646Y-45001D02*
X29646Y-44488D01*
X29724Y-45079D02*
X31496Y-45079D01*
X29646Y-45001D02*
X29724Y-45079D01*
X31890Y-44685D02*
X31496Y-45079D01*
X30394Y-44488D02*
X30394Y-43524D01*
X30394Y-43524D02*
X30512Y-43406D01*
X31512Y-43406D02*
X31512Y-42421D01*
G54D10*
G36*
X67126Y-44489D02*
X36199Y-44489D01*
X36199Y-43651D01*
X36199Y-43357D01*
X36198Y-43268D01*
X36198Y-43190D01*
X36168Y-43119D01*
X36114Y-43064D01*
X36042Y-43034D01*
X35875Y-43033D01*
X35826Y-43082D01*
X35826Y-43406D01*
X36150Y-43406D01*
X36199Y-43357D01*
X36199Y-43651D01*
X36150Y-43602D01*
X35826Y-43602D01*
X35826Y-43926D01*
X35875Y-43975D01*
X36042Y-43974D01*
X36114Y-43944D01*
X36168Y-43889D01*
X36198Y-43818D01*
X36198Y-43740D01*
X36199Y-43651D01*
X36199Y-44489D01*
X35630Y-44489D01*
X35630Y-43926D01*
X35630Y-43602D01*
X35630Y-43406D01*
X35630Y-43082D01*
X35581Y-43033D01*
X35414Y-43034D01*
X35342Y-43064D01*
X35288Y-43119D01*
X35258Y-43190D01*
X35258Y-43268D01*
X35257Y-43357D01*
X35306Y-43406D01*
X35630Y-43406D01*
X35630Y-43602D01*
X35306Y-43602D01*
X35257Y-43651D01*
X35258Y-43740D01*
X35258Y-43818D01*
X35288Y-43889D01*
X35342Y-43944D01*
X35414Y-43974D01*
X35581Y-43975D01*
X35630Y-43926D01*
X35630Y-44489D01*
X34645Y-44489D01*
X34645Y-42525D01*
X67126Y-44482D01*
X67126Y-44489D01*
X67126Y-44489D01*
G37*
G54D16*
X67126Y-44489D02*
X36199Y-44489D01*
X36199Y-43651D01*
X36199Y-43357D01*
X36198Y-43268D01*
X36198Y-43190D01*
X36168Y-43119D01*
X36114Y-43064D01*
X36042Y-43034D01*
X35875Y-43033D01*
X35826Y-43082D01*
X35826Y-43406D01*
X36150Y-43406D01*
X36199Y-43357D01*
X36199Y-43651D01*
X36150Y-43602D01*
X35826Y-43602D01*
X35826Y-43926D01*
X35875Y-43975D01*
X36042Y-43974D01*
X36114Y-43944D01*
X36168Y-43889D01*
X36198Y-43818D01*
X36198Y-43740D01*
X36199Y-43651D01*
X36199Y-44489D01*
X35630Y-44489D01*
X35630Y-43926D01*
X35630Y-43602D01*
X35630Y-43406D01*
X35630Y-43082D01*
X35581Y-43033D01*
X35414Y-43034D01*
X35342Y-43064D01*
X35288Y-43119D01*
X35258Y-43190D01*
X35258Y-43268D01*
X35257Y-43357D01*
X35306Y-43406D01*
X35630Y-43406D01*
X35630Y-43602D01*
X35306Y-43602D01*
X35257Y-43651D01*
X35258Y-43740D01*
X35258Y-43818D01*
X35288Y-43889D01*
X35342Y-43944D01*
X35414Y-43974D01*
X35581Y-43975D01*
X35630Y-43926D01*
X35630Y-44489D01*
X34645Y-44489D01*
X34645Y-42525D01*
X67126Y-44482D01*
X67126Y-44489D01*
G54D10*
G36*
X67126Y-43302D02*
X66711Y-43276D01*
X66711Y-42371D01*
X66711Y-42077D01*
X66710Y-41988D01*
X66710Y-41910D01*
X66680Y-41839D01*
X66626Y-41784D01*
X66554Y-41754D01*
X66387Y-41753D01*
X66338Y-41802D01*
X66338Y-42126D01*
X66662Y-42126D01*
X66711Y-42077D01*
X66711Y-42371D01*
X66662Y-42322D01*
X66338Y-42322D01*
X66338Y-42646D01*
X66387Y-42695D01*
X66554Y-42694D01*
X66626Y-42664D01*
X66680Y-42609D01*
X66710Y-42538D01*
X66710Y-42460D01*
X66711Y-42371D01*
X66711Y-43276D01*
X66142Y-43242D01*
X66142Y-42646D01*
X66142Y-42322D01*
X66142Y-42126D01*
X66142Y-41802D01*
X66093Y-41753D01*
X65926Y-41754D01*
X65854Y-41784D01*
X65800Y-41839D01*
X65770Y-41910D01*
X65770Y-41988D01*
X65769Y-42077D01*
X65818Y-42126D01*
X66142Y-42126D01*
X66142Y-42322D01*
X65818Y-42322D01*
X65769Y-42371D01*
X65770Y-42460D01*
X65770Y-42538D01*
X65800Y-42609D01*
X65854Y-42664D01*
X65926Y-42694D01*
X66093Y-42695D01*
X66142Y-42646D01*
X66142Y-43242D01*
X34645Y-41345D01*
X34645Y-41338D01*
X67126Y-41338D01*
X67126Y-43302D01*
X67126Y-43302D01*
G37*
G54D16*
X67126Y-43302D02*
X66711Y-43276D01*
X66711Y-42371D01*
X66711Y-42077D01*
X66710Y-41988D01*
X66710Y-41910D01*
X66680Y-41839D01*
X66626Y-41784D01*
X66554Y-41754D01*
X66387Y-41753D01*
X66338Y-41802D01*
X66338Y-42126D01*
X66662Y-42126D01*
X66711Y-42077D01*
X66711Y-42371D01*
X66662Y-42322D01*
X66338Y-42322D01*
X66338Y-42646D01*
X66387Y-42695D01*
X66554Y-42694D01*
X66626Y-42664D01*
X66680Y-42609D01*
X66710Y-42538D01*
X66710Y-42460D01*
X66711Y-42371D01*
X66711Y-43276D01*
X66142Y-43242D01*
X66142Y-42646D01*
X66142Y-42322D01*
X66142Y-42126D01*
X66142Y-41802D01*
X66093Y-41753D01*
X65926Y-41754D01*
X65854Y-41784D01*
X65800Y-41839D01*
X65770Y-41910D01*
X65770Y-41988D01*
X65769Y-42077D01*
X65818Y-42126D01*
X66142Y-42126D01*
X66142Y-42322D01*
X65818Y-42322D01*
X65769Y-42371D01*
X65770Y-42460D01*
X65770Y-42538D01*
X65800Y-42609D01*
X65854Y-42664D01*
X65926Y-42694D01*
X66093Y-42695D01*
X66142Y-42646D01*
X66142Y-43242D01*
X34645Y-41345D01*
X34645Y-41338D01*
X67126Y-41338D01*
X67126Y-43302D01*
G54D10*
G36*
X67642Y-45005D02*
X67519Y-45005D01*
X33476Y-45005D01*
X33503Y-44940D01*
X33503Y-44923D01*
X34547Y-44923D01*
X34638Y-44905D01*
X34673Y-44881D01*
X67519Y-44881D01*
X67519Y-44101D01*
X34252Y-42120D01*
X34252Y-44447D01*
X33503Y-44447D01*
X33503Y-44430D01*
X33473Y-44358D01*
X33418Y-44302D01*
X33345Y-44272D01*
X33267Y-44272D01*
X32875Y-44272D01*
X32803Y-44302D01*
X32776Y-44328D01*
X32750Y-44302D01*
X32677Y-44272D01*
X32599Y-44272D01*
X32207Y-44272D01*
X32135Y-44302D01*
X32079Y-44357D01*
X32049Y-44430D01*
X32049Y-44447D01*
X31982Y-44447D01*
X31982Y-43418D01*
X31982Y-42433D01*
X31951Y-42252D01*
X31942Y-42230D01*
X31871Y-42200D01*
X31733Y-42338D01*
X31733Y-42062D01*
X31703Y-41991D01*
X31524Y-41951D01*
X31343Y-41982D01*
X31321Y-41991D01*
X31291Y-42062D01*
X31512Y-42282D01*
X31733Y-42062D01*
X31733Y-42338D01*
X31651Y-42421D01*
X31871Y-42642D01*
X31942Y-42612D01*
X31982Y-42433D01*
X31982Y-43418D01*
X31951Y-43237D01*
X31942Y-43215D01*
X31871Y-43185D01*
X31733Y-43323D01*
X31733Y-43047D01*
X31733Y-42780D01*
X31512Y-42560D01*
X31373Y-42698D01*
X31373Y-42421D01*
X31153Y-42200D01*
X31082Y-42230D01*
X31042Y-42409D01*
X31073Y-42590D01*
X31082Y-42612D01*
X31153Y-42642D01*
X31373Y-42421D01*
X31373Y-42698D01*
X31291Y-42780D01*
X31321Y-42851D01*
X31500Y-42891D01*
X31681Y-42860D01*
X31703Y-42851D01*
X31733Y-42780D01*
X31733Y-43047D01*
X31703Y-42976D01*
X31524Y-42936D01*
X31343Y-42967D01*
X31321Y-42976D01*
X31291Y-43047D01*
X31512Y-43267D01*
X31733Y-43047D01*
X31733Y-43323D01*
X31651Y-43406D01*
X31871Y-43627D01*
X31942Y-43597D01*
X31982Y-43418D01*
X31982Y-44447D01*
X31890Y-44447D01*
X31799Y-44465D01*
X31733Y-44509D01*
X31733Y-43765D01*
X31512Y-43545D01*
X31373Y-43683D01*
X31373Y-43406D01*
X31153Y-43185D01*
X31082Y-43215D01*
X31042Y-43394D01*
X31073Y-43575D01*
X31082Y-43597D01*
X31153Y-43627D01*
X31373Y-43406D01*
X31373Y-43683D01*
X31291Y-43765D01*
X31321Y-43836D01*
X31500Y-43876D01*
X31681Y-43845D01*
X31703Y-43836D01*
X31733Y-43765D01*
X31733Y-44509D01*
X31722Y-44517D01*
X31398Y-44841D01*
X30838Y-44841D01*
X30846Y-44822D01*
X30846Y-44744D01*
X30846Y-44154D01*
X30816Y-44082D01*
X30761Y-44026D01*
X30688Y-43996D01*
X30632Y-43996D01*
X30632Y-43868D01*
X30780Y-43807D01*
X30913Y-43674D01*
X30985Y-43500D01*
X30985Y-43312D01*
X30913Y-43138D01*
X30780Y-43005D01*
X30606Y-42933D01*
X30418Y-42933D01*
X30244Y-43005D01*
X30111Y-43138D01*
X30039Y-43312D01*
X30039Y-43500D01*
X30111Y-43674D01*
X30156Y-43719D01*
X30156Y-43996D01*
X30100Y-43996D01*
X30028Y-44026D01*
X30020Y-44033D01*
X30013Y-44026D01*
X29940Y-43996D01*
X29884Y-43996D01*
X29884Y-43853D01*
X29898Y-43848D01*
X29954Y-43793D01*
X29984Y-43720D01*
X29984Y-43642D01*
X29984Y-43092D01*
X29954Y-43020D01*
X29899Y-42964D01*
X29826Y-42934D01*
X29748Y-42934D01*
X29198Y-42934D01*
X29126Y-42964D01*
X29070Y-43019D01*
X29040Y-43092D01*
X29040Y-43170D01*
X29040Y-43720D01*
X29070Y-43792D01*
X29125Y-43848D01*
X29198Y-43878D01*
X29276Y-43878D01*
X29408Y-43878D01*
X29408Y-43996D01*
X29352Y-43996D01*
X29280Y-44026D01*
X29224Y-44081D01*
X29194Y-44154D01*
X29194Y-44232D01*
X29194Y-44822D01*
X29224Y-44894D01*
X29279Y-44950D01*
X29352Y-44980D01*
X29408Y-44980D01*
X29408Y-45001D01*
X29408Y-45005D01*
X28814Y-45005D01*
X28814Y-40822D01*
X29408Y-40822D01*
X29408Y-40826D01*
X29408Y-40847D01*
X29352Y-40847D01*
X29280Y-40877D01*
X29224Y-40932D01*
X29194Y-41005D01*
X29194Y-41083D01*
X29194Y-41673D01*
X29224Y-41745D01*
X29279Y-41801D01*
X29352Y-41831D01*
X29408Y-41831D01*
X29408Y-41949D01*
X29198Y-41949D01*
X29126Y-41979D01*
X29070Y-42034D01*
X29040Y-42107D01*
X29040Y-42185D01*
X29040Y-42735D01*
X29070Y-42807D01*
X29125Y-42863D01*
X29198Y-42893D01*
X29276Y-42893D01*
X29826Y-42893D01*
X29898Y-42863D01*
X29954Y-42808D01*
X29984Y-42735D01*
X29984Y-42657D01*
X29984Y-42107D01*
X29954Y-42035D01*
X29899Y-41979D01*
X29884Y-41972D01*
X29884Y-41831D01*
X29940Y-41831D01*
X30012Y-41801D01*
X30019Y-41793D01*
X30027Y-41801D01*
X30100Y-41831D01*
X30156Y-41831D01*
X30156Y-42108D01*
X30111Y-42153D01*
X30039Y-42327D01*
X30039Y-42515D01*
X30111Y-42689D01*
X30244Y-42822D01*
X30418Y-42894D01*
X30606Y-42894D01*
X30780Y-42822D01*
X30913Y-42689D01*
X30985Y-42515D01*
X30985Y-42327D01*
X30913Y-42153D01*
X30780Y-42020D01*
X30632Y-41958D01*
X30632Y-41831D01*
X30688Y-41831D01*
X30760Y-41801D01*
X30816Y-41746D01*
X30846Y-41673D01*
X30846Y-41595D01*
X30846Y-41005D01*
X30838Y-40986D01*
X31398Y-40986D01*
X31722Y-41310D01*
X31799Y-41362D01*
X31890Y-41380D01*
X32049Y-41380D01*
X32049Y-41397D01*
X32079Y-41469D01*
X32134Y-41525D01*
X32207Y-41555D01*
X32285Y-41555D01*
X32677Y-41555D01*
X32749Y-41525D01*
X32775Y-41498D01*
X32802Y-41525D01*
X32875Y-41555D01*
X32953Y-41555D01*
X33345Y-41555D01*
X33417Y-41525D01*
X33473Y-41470D01*
X33503Y-41397D01*
X33503Y-41380D01*
X34252Y-41380D01*
X34252Y-41726D01*
X67519Y-43706D01*
X67519Y-40945D01*
X34574Y-40945D01*
X34540Y-40922D01*
X34449Y-40904D01*
X33503Y-40904D01*
X33503Y-40887D01*
X33475Y-40822D01*
X67642Y-40822D01*
X67642Y-45005D01*
X67642Y-45005D01*
G37*
G54D16*
X67642Y-45005D02*
X67519Y-45005D01*
X33476Y-45005D01*
X33503Y-44940D01*
X33503Y-44923D01*
X34547Y-44923D01*
X34638Y-44905D01*
X34673Y-44881D01*
X67519Y-44881D01*
X67519Y-44101D01*
X34252Y-42120D01*
X34252Y-44447D01*
X33503Y-44447D01*
X33503Y-44430D01*
X33473Y-44358D01*
X33418Y-44302D01*
X33345Y-44272D01*
X33267Y-44272D01*
X32875Y-44272D01*
X32803Y-44302D01*
X32776Y-44328D01*
X32750Y-44302D01*
X32677Y-44272D01*
X32599Y-44272D01*
X32207Y-44272D01*
X32135Y-44302D01*
X32079Y-44357D01*
X32049Y-44430D01*
X32049Y-44447D01*
X31982Y-44447D01*
X31982Y-43418D01*
X31982Y-42433D01*
X31951Y-42252D01*
X31942Y-42230D01*
X31871Y-42200D01*
X31733Y-42338D01*
X31733Y-42062D01*
X31703Y-41991D01*
X31524Y-41951D01*
X31343Y-41982D01*
X31321Y-41991D01*
X31291Y-42062D01*
X31512Y-42282D01*
X31733Y-42062D01*
X31733Y-42338D01*
X31651Y-42421D01*
X31871Y-42642D01*
X31942Y-42612D01*
X31982Y-42433D01*
X31982Y-43418D01*
X31951Y-43237D01*
X31942Y-43215D01*
X31871Y-43185D01*
X31733Y-43323D01*
X31733Y-43047D01*
X31733Y-42780D01*
X31512Y-42560D01*
X31373Y-42698D01*
X31373Y-42421D01*
X31153Y-42200D01*
X31082Y-42230D01*
X31042Y-42409D01*
X31073Y-42590D01*
X31082Y-42612D01*
X31153Y-42642D01*
X31373Y-42421D01*
X31373Y-42698D01*
X31291Y-42780D01*
X31321Y-42851D01*
X31500Y-42891D01*
X31681Y-42860D01*
X31703Y-42851D01*
X31733Y-42780D01*
X31733Y-43047D01*
X31703Y-42976D01*
X31524Y-42936D01*
X31343Y-42967D01*
X31321Y-42976D01*
X31291Y-43047D01*
X31512Y-43267D01*
X31733Y-43047D01*
X31733Y-43323D01*
X31651Y-43406D01*
X31871Y-43627D01*
X31942Y-43597D01*
X31982Y-43418D01*
X31982Y-44447D01*
X31890Y-44447D01*
X31799Y-44465D01*
X31733Y-44509D01*
X31733Y-43765D01*
X31512Y-43545D01*
X31373Y-43683D01*
X31373Y-43406D01*
X31153Y-43185D01*
X31082Y-43215D01*
X31042Y-43394D01*
X31073Y-43575D01*
X31082Y-43597D01*
X31153Y-43627D01*
X31373Y-43406D01*
X31373Y-43683D01*
X31291Y-43765D01*
X31321Y-43836D01*
X31500Y-43876D01*
X31681Y-43845D01*
X31703Y-43836D01*
X31733Y-43765D01*
X31733Y-44509D01*
X31722Y-44517D01*
X31398Y-44841D01*
X30838Y-44841D01*
X30846Y-44822D01*
X30846Y-44744D01*
X30846Y-44154D01*
X30816Y-44082D01*
X30761Y-44026D01*
X30688Y-43996D01*
X30632Y-43996D01*
X30632Y-43868D01*
X30780Y-43807D01*
X30913Y-43674D01*
X30985Y-43500D01*
X30985Y-43312D01*
X30913Y-43138D01*
X30780Y-43005D01*
X30606Y-42933D01*
X30418Y-42933D01*
X30244Y-43005D01*
X30111Y-43138D01*
X30039Y-43312D01*
X30039Y-43500D01*
X30111Y-43674D01*
X30156Y-43719D01*
X30156Y-43996D01*
X30100Y-43996D01*
X30028Y-44026D01*
X30020Y-44033D01*
X30013Y-44026D01*
X29940Y-43996D01*
X29884Y-43996D01*
X29884Y-43853D01*
X29898Y-43848D01*
X29954Y-43793D01*
X29984Y-43720D01*
X29984Y-43642D01*
X29984Y-43092D01*
X29954Y-43020D01*
X29899Y-42964D01*
X29826Y-42934D01*
X29748Y-42934D01*
X29198Y-42934D01*
X29126Y-42964D01*
X29070Y-43019D01*
X29040Y-43092D01*
X29040Y-43170D01*
X29040Y-43720D01*
X29070Y-43792D01*
X29125Y-43848D01*
X29198Y-43878D01*
X29276Y-43878D01*
X29408Y-43878D01*
X29408Y-43996D01*
X29352Y-43996D01*
X29280Y-44026D01*
X29224Y-44081D01*
X29194Y-44154D01*
X29194Y-44232D01*
X29194Y-44822D01*
X29224Y-44894D01*
X29279Y-44950D01*
X29352Y-44980D01*
X29408Y-44980D01*
X29408Y-45001D01*
X29408Y-45005D01*
X28814Y-45005D01*
X28814Y-40822D01*
X29408Y-40822D01*
X29408Y-40826D01*
X29408Y-40847D01*
X29352Y-40847D01*
X29280Y-40877D01*
X29224Y-40932D01*
X29194Y-41005D01*
X29194Y-41083D01*
X29194Y-41673D01*
X29224Y-41745D01*
X29279Y-41801D01*
X29352Y-41831D01*
X29408Y-41831D01*
X29408Y-41949D01*
X29198Y-41949D01*
X29126Y-41979D01*
X29070Y-42034D01*
X29040Y-42107D01*
X29040Y-42185D01*
X29040Y-42735D01*
X29070Y-42807D01*
X29125Y-42863D01*
X29198Y-42893D01*
X29276Y-42893D01*
X29826Y-42893D01*
X29898Y-42863D01*
X29954Y-42808D01*
X29984Y-42735D01*
X29984Y-42657D01*
X29984Y-42107D01*
X29954Y-42035D01*
X29899Y-41979D01*
X29884Y-41972D01*
X29884Y-41831D01*
X29940Y-41831D01*
X30012Y-41801D01*
X30019Y-41793D01*
X30027Y-41801D01*
X30100Y-41831D01*
X30156Y-41831D01*
X30156Y-42108D01*
X30111Y-42153D01*
X30039Y-42327D01*
X30039Y-42515D01*
X30111Y-42689D01*
X30244Y-42822D01*
X30418Y-42894D01*
X30606Y-42894D01*
X30780Y-42822D01*
X30913Y-42689D01*
X30985Y-42515D01*
X30985Y-42327D01*
X30913Y-42153D01*
X30780Y-42020D01*
X30632Y-41958D01*
X30632Y-41831D01*
X30688Y-41831D01*
X30760Y-41801D01*
X30816Y-41746D01*
X30846Y-41673D01*
X30846Y-41595D01*
X30846Y-41005D01*
X30838Y-40986D01*
X31398Y-40986D01*
X31722Y-41310D01*
X31799Y-41362D01*
X31890Y-41380D01*
X32049Y-41380D01*
X32049Y-41397D01*
X32079Y-41469D01*
X32134Y-41525D01*
X32207Y-41555D01*
X32285Y-41555D01*
X32677Y-41555D01*
X32749Y-41525D01*
X32775Y-41498D01*
X32802Y-41525D01*
X32875Y-41555D01*
X32953Y-41555D01*
X33345Y-41555D01*
X33417Y-41525D01*
X33473Y-41470D01*
X33503Y-41397D01*
X33503Y-41380D01*
X34252Y-41380D01*
X34252Y-41726D01*
X67519Y-43706D01*
X67519Y-40945D01*
X34574Y-40945D01*
X34540Y-40922D01*
X34449Y-40904D01*
X33503Y-40904D01*
X33503Y-40887D01*
X33475Y-40822D01*
X67642Y-40822D01*
X67642Y-45005D01*
M02*
