%FSLAX34Y34*%
G04 Gerber Fmt 3.4, Leading zero omitted, Abs format*
G04 (created by PCBNEW (2014-06-02 BZR 4912)-product) date Mon 02 Jun 2014 11:46:11 PM CEST*
%MOIN*%
G01*
G70*
G90*
G04 APERTURE LIST*
%ADD10C,0.005906*%
%ADD11R,0.078740X0.078740*%
%ADD12R,0.039300X0.043300*%
%ADD13R,0.059000X0.051100*%
%ADD14R,0.064961X0.064961*%
%ADD15C,0.064961*%
%ADD16C,0.035000*%
%ADD17C,0.008000*%
%ADD18C,0.019700*%
G04 APERTURE END LIST*
G54D10*
G54D11*
X57972Y-23622D03*
X27461Y-24902D03*
G54D12*
X24174Y-22539D03*
X24842Y-22539D03*
X24174Y-26082D03*
X24842Y-26082D03*
G54D13*
X23228Y-23366D03*
X23228Y-22618D03*
X23228Y-25255D03*
X23228Y-26003D03*
G54D14*
X22146Y-23311D03*
G54D15*
X22146Y-24311D03*
X22146Y-25311D03*
G54D14*
X21161Y-25311D03*
G54D15*
X21161Y-24311D03*
X21161Y-23311D03*
G54D16*
X23917Y-24311D03*
X24508Y-24311D03*
X23917Y-25394D03*
X23917Y-24803D03*
X24508Y-24803D03*
X23917Y-23228D03*
X23917Y-23819D03*
X24508Y-23819D03*
G54D17*
X26181Y-22539D02*
X26378Y-22736D01*
X26378Y-22736D02*
X57087Y-22736D01*
X57087Y-22736D02*
X57972Y-23621D01*
X24842Y-22539D02*
X26181Y-22539D01*
X21240Y-22559D02*
X23327Y-22559D01*
X21161Y-23311D02*
X21161Y-22638D01*
X21161Y-22638D02*
X21240Y-22559D01*
X23327Y-22559D02*
X24154Y-22559D01*
X24154Y-22559D02*
X24174Y-22539D01*
X21162Y-24311D02*
X21161Y-24311D01*
X23228Y-23819D02*
X23327Y-23720D01*
X21654Y-23819D02*
X23228Y-23819D01*
X23327Y-23307D02*
X23327Y-23720D01*
X21162Y-24311D02*
X21654Y-23819D01*
X24842Y-26082D02*
X26279Y-26082D01*
X26279Y-26082D02*
X27460Y-24901D01*
X24155Y-26063D02*
X24174Y-26082D01*
X23327Y-26063D02*
X24155Y-26063D01*
X22146Y-25311D02*
X22146Y-25591D01*
X22146Y-25591D02*
X22618Y-26063D01*
X22618Y-26063D02*
X23327Y-26063D01*
X22933Y-24311D02*
X23327Y-24705D01*
X22146Y-24311D02*
X22933Y-24311D01*
X23327Y-24705D02*
X23327Y-25315D01*
X24508Y-24311D02*
X24508Y-24803D01*
X23917Y-24803D02*
X23917Y-25394D01*
X24508Y-23819D02*
X23917Y-23819D01*
G54D18*
G36*
X58857Y-25885D02*
X26377Y-25885D01*
X26377Y-23922D01*
X58857Y-25879D01*
X58857Y-25885D01*
X58857Y-25885D01*
G37*
X58857Y-25885D02*
X26377Y-25885D01*
X26377Y-23922D01*
X58857Y-25879D01*
X58857Y-25885D01*
G36*
X58857Y-24698D02*
X26377Y-22741D01*
X26377Y-22735D01*
X58857Y-22735D01*
X58857Y-24698D01*
X58857Y-24698D01*
G37*
X58857Y-24698D02*
X26377Y-22741D01*
X26377Y-22735D01*
X58857Y-22735D01*
X58857Y-24698D01*
G36*
X22771Y-22992D02*
X22765Y-22998D01*
X22734Y-23071D01*
X22734Y-23150D01*
X22734Y-23580D01*
X21654Y-23580D01*
X21612Y-23588D01*
X21684Y-23415D01*
X21684Y-23207D01*
X21604Y-23014D01*
X21457Y-22867D01*
X21399Y-22843D01*
X21399Y-22797D01*
X22734Y-22797D01*
X22734Y-22913D01*
X22765Y-22986D01*
X22771Y-22992D01*
X22771Y-22992D01*
G37*
X22771Y-22992D02*
X22765Y-22998D01*
X22734Y-23071D01*
X22734Y-23150D01*
X22734Y-23580D01*
X21654Y-23580D01*
X21612Y-23588D01*
X21684Y-23415D01*
X21684Y-23207D01*
X21604Y-23014D01*
X21457Y-22867D01*
X21399Y-22843D01*
X21399Y-22797D01*
X22734Y-22797D01*
X22734Y-22913D01*
X22765Y-22986D01*
X22771Y-22992D01*
G36*
X22795Y-22219D02*
X22765Y-22250D01*
X22735Y-22320D01*
X21240Y-22320D01*
X21148Y-22338D01*
X21071Y-22390D01*
X20992Y-22469D01*
X20940Y-22546D01*
X20922Y-22638D01*
X20922Y-22843D01*
X20864Y-22867D01*
X20717Y-23014D01*
X20637Y-23206D01*
X20637Y-23414D01*
X20717Y-23607D01*
X20864Y-23754D01*
X21000Y-23811D01*
X20864Y-23867D01*
X20717Y-24014D01*
X20637Y-24206D01*
X20637Y-24414D01*
X20717Y-24607D01*
X20864Y-24754D01*
X21056Y-24834D01*
X21264Y-24834D01*
X21457Y-24754D01*
X21604Y-24607D01*
X21653Y-24489D01*
X21702Y-24607D01*
X21849Y-24754D01*
X21985Y-24811D01*
X21849Y-24867D01*
X21702Y-25014D01*
X21622Y-25206D01*
X21622Y-25414D01*
X21702Y-25607D01*
X21849Y-25754D01*
X22041Y-25834D01*
X22051Y-25834D01*
X22449Y-26231D01*
X22526Y-26283D01*
X22618Y-26301D01*
X22735Y-26301D01*
X22765Y-26371D01*
X22794Y-26401D01*
X20546Y-26401D01*
X20546Y-22219D01*
X22795Y-22219D01*
X22795Y-22219D01*
G37*
X22795Y-22219D02*
X22765Y-22250D01*
X22735Y-22320D01*
X21240Y-22320D01*
X21148Y-22338D01*
X21071Y-22390D01*
X20992Y-22469D01*
X20940Y-22546D01*
X20922Y-22638D01*
X20922Y-22843D01*
X20864Y-22867D01*
X20717Y-23014D01*
X20637Y-23206D01*
X20637Y-23414D01*
X20717Y-23607D01*
X20864Y-23754D01*
X21000Y-23811D01*
X20864Y-23867D01*
X20717Y-24014D01*
X20637Y-24206D01*
X20637Y-24414D01*
X20717Y-24607D01*
X20864Y-24754D01*
X21056Y-24834D01*
X21264Y-24834D01*
X21457Y-24754D01*
X21604Y-24607D01*
X21653Y-24489D01*
X21702Y-24607D01*
X21849Y-24754D01*
X21985Y-24811D01*
X21849Y-24867D01*
X21702Y-25014D01*
X21622Y-25206D01*
X21622Y-25414D01*
X21702Y-25607D01*
X21849Y-25754D01*
X22041Y-25834D01*
X22051Y-25834D01*
X22449Y-26231D01*
X22526Y-26283D01*
X22618Y-26301D01*
X22735Y-26301D01*
X22765Y-26371D01*
X22794Y-26401D01*
X20546Y-26401D01*
X20546Y-22219D01*
X22795Y-22219D01*
G36*
X59373Y-26401D02*
X59251Y-26401D01*
X25210Y-26401D01*
X25237Y-26337D01*
X25237Y-26320D01*
X26279Y-26320D01*
X26370Y-26302D01*
X26405Y-26278D01*
X59251Y-26278D01*
X59251Y-25497D01*
X25983Y-23516D01*
X25983Y-25843D01*
X25237Y-25843D01*
X25237Y-25826D01*
X25206Y-25753D01*
X25150Y-25697D01*
X25077Y-25667D01*
X24999Y-25667D01*
X24606Y-25667D01*
X24533Y-25697D01*
X24507Y-25722D01*
X24482Y-25697D01*
X24409Y-25667D01*
X24331Y-25667D01*
X23938Y-25667D01*
X23865Y-25697D01*
X23809Y-25753D01*
X23779Y-25824D01*
X23721Y-25824D01*
X23721Y-25708D01*
X23691Y-25635D01*
X23685Y-25629D01*
X23691Y-25623D01*
X23721Y-25550D01*
X23721Y-25471D01*
X23721Y-24960D01*
X23691Y-24887D01*
X23635Y-24832D01*
X23565Y-24803D01*
X23565Y-24705D01*
X23547Y-24613D01*
X23495Y-24536D01*
X23101Y-24142D01*
X23024Y-24090D01*
X22933Y-24072D01*
X22613Y-24072D01*
X22607Y-24057D01*
X23228Y-24057D01*
X23319Y-24039D01*
X23396Y-23987D01*
X23495Y-23888D01*
X23541Y-23820D01*
X23562Y-23820D01*
X23635Y-23789D01*
X23691Y-23734D01*
X23721Y-23661D01*
X23721Y-23582D01*
X23721Y-23071D01*
X23691Y-22998D01*
X23685Y-22992D01*
X23691Y-22986D01*
X23721Y-22913D01*
X23721Y-22834D01*
X23721Y-22797D01*
X23780Y-22797D01*
X23809Y-22867D01*
X23865Y-22923D01*
X23938Y-22954D01*
X24016Y-22954D01*
X24409Y-22954D01*
X24482Y-22923D01*
X24508Y-22898D01*
X24533Y-22923D01*
X24606Y-22954D01*
X24684Y-22954D01*
X25077Y-22954D01*
X25150Y-22923D01*
X25206Y-22867D01*
X25237Y-22794D01*
X25237Y-22777D01*
X25983Y-22777D01*
X25983Y-23123D01*
X59251Y-25103D01*
X59251Y-22341D01*
X26306Y-22341D01*
X26272Y-22318D01*
X26181Y-22300D01*
X25237Y-22300D01*
X25237Y-22283D01*
X25210Y-22219D01*
X59373Y-22219D01*
X59373Y-26401D01*
X59373Y-26401D01*
G37*
X59373Y-26401D02*
X59251Y-26401D01*
X25210Y-26401D01*
X25237Y-26337D01*
X25237Y-26320D01*
X26279Y-26320D01*
X26370Y-26302D01*
X26405Y-26278D01*
X59251Y-26278D01*
X59251Y-25497D01*
X25983Y-23516D01*
X25983Y-25843D01*
X25237Y-25843D01*
X25237Y-25826D01*
X25206Y-25753D01*
X25150Y-25697D01*
X25077Y-25667D01*
X24999Y-25667D01*
X24606Y-25667D01*
X24533Y-25697D01*
X24507Y-25722D01*
X24482Y-25697D01*
X24409Y-25667D01*
X24331Y-25667D01*
X23938Y-25667D01*
X23865Y-25697D01*
X23809Y-25753D01*
X23779Y-25824D01*
X23721Y-25824D01*
X23721Y-25708D01*
X23691Y-25635D01*
X23685Y-25629D01*
X23691Y-25623D01*
X23721Y-25550D01*
X23721Y-25471D01*
X23721Y-24960D01*
X23691Y-24887D01*
X23635Y-24832D01*
X23565Y-24803D01*
X23565Y-24705D01*
X23547Y-24613D01*
X23495Y-24536D01*
X23101Y-24142D01*
X23024Y-24090D01*
X22933Y-24072D01*
X22613Y-24072D01*
X22607Y-24057D01*
X23228Y-24057D01*
X23319Y-24039D01*
X23396Y-23987D01*
X23495Y-23888D01*
X23541Y-23820D01*
X23562Y-23820D01*
X23635Y-23789D01*
X23691Y-23734D01*
X23721Y-23661D01*
X23721Y-23582D01*
X23721Y-23071D01*
X23691Y-22998D01*
X23685Y-22992D01*
X23691Y-22986D01*
X23721Y-22913D01*
X23721Y-22834D01*
X23721Y-22797D01*
X23780Y-22797D01*
X23809Y-22867D01*
X23865Y-22923D01*
X23938Y-22954D01*
X24016Y-22954D01*
X24409Y-22954D01*
X24482Y-22923D01*
X24508Y-22898D01*
X24533Y-22923D01*
X24606Y-22954D01*
X24684Y-22954D01*
X25077Y-22954D01*
X25150Y-22923D01*
X25206Y-22867D01*
X25237Y-22794D01*
X25237Y-22777D01*
X25983Y-22777D01*
X25983Y-23123D01*
X59251Y-25103D01*
X59251Y-22341D01*
X26306Y-22341D01*
X26272Y-22318D01*
X26181Y-22300D01*
X25237Y-22300D01*
X25237Y-22283D01*
X25210Y-22219D01*
X59373Y-22219D01*
X59373Y-26401D01*
M02*
