G04 (created by PCBNEW-RS274X (2012-jan-04)-stable) date Wed 18 Jul 2012 02:08:58 PM CEST*
G01*
G70*
G90*
%MOIN*%
G04 Gerber Fmt 3.4, Leading zero omitted, Abs format*
%FSLAX34Y34*%
G04 APERTURE LIST*
%ADD10C,0.006000*%
%ADD11R,0.055000X0.055000*%
%ADD12C,0.055000*%
%ADD13C,0.035000*%
%ADD14C,0.008000*%
%ADD15C,0.019700*%
G04 APERTURE END LIST*
G54D10*
G54D11*
X21161Y-25311D03*
G54D12*
X21161Y-24311D03*
X21161Y-23311D03*
G54D11*
X22146Y-23311D03*
G54D12*
X22146Y-24311D03*
X22146Y-25311D03*
G54D13*
X25394Y-23327D03*
X57677Y-25197D03*
X25394Y-24311D03*
X51181Y-24803D03*
X47835Y-24606D03*
X54429Y-25000D03*
X24508Y-24311D03*
X41240Y-24213D03*
X31102Y-23622D03*
X34449Y-23819D03*
X25394Y-25295D03*
X44488Y-24409D03*
X27756Y-23425D03*
X37795Y-24016D03*
G54D14*
X25394Y-24311D02*
X25394Y-23327D01*
X54626Y-25197D02*
X57677Y-25197D01*
X22146Y-23328D02*
X23129Y-24311D01*
X23129Y-24311D02*
X24508Y-24311D01*
X48032Y-24803D02*
X51181Y-24803D01*
X47835Y-24606D02*
X48032Y-24803D01*
X41436Y-24409D02*
X44488Y-24409D01*
X54429Y-25000D02*
X54626Y-25197D01*
X34646Y-24016D02*
X37795Y-24016D01*
X41240Y-24213D02*
X41436Y-24409D01*
X27756Y-23425D02*
X27953Y-23622D01*
X27953Y-23622D02*
X31102Y-23622D01*
X34449Y-23819D02*
X34646Y-24016D01*
X22146Y-23311D02*
X22146Y-23328D01*
G54D10*
G36*
X59374Y-26402D02*
X22619Y-26402D01*
X22619Y-25405D01*
X22619Y-25217D01*
X22619Y-24405D01*
X22619Y-24217D01*
X22547Y-24043D01*
X22414Y-23910D01*
X22240Y-23838D01*
X22052Y-23838D01*
X21878Y-23910D01*
X21745Y-24043D01*
X21673Y-24217D01*
X21673Y-24405D01*
X21745Y-24579D01*
X21878Y-24712D01*
X22052Y-24784D01*
X22240Y-24784D01*
X22414Y-24712D01*
X22547Y-24579D01*
X22619Y-24405D01*
X22619Y-25217D01*
X22547Y-25043D01*
X22414Y-24910D01*
X22240Y-24838D01*
X22052Y-24838D01*
X21878Y-24910D01*
X21745Y-25043D01*
X21673Y-25217D01*
X21673Y-25405D01*
X21745Y-25579D01*
X21878Y-25712D01*
X22052Y-25784D01*
X22240Y-25784D01*
X22414Y-25712D01*
X22547Y-25579D01*
X22619Y-25405D01*
X22619Y-26402D01*
X21634Y-26402D01*
X21634Y-24405D01*
X21634Y-24217D01*
X21634Y-23405D01*
X21634Y-23217D01*
X21562Y-23043D01*
X21429Y-22910D01*
X21255Y-22838D01*
X21067Y-22838D01*
X20893Y-22910D01*
X20760Y-23043D01*
X20688Y-23217D01*
X20688Y-23405D01*
X20760Y-23579D01*
X20893Y-23712D01*
X21067Y-23784D01*
X21255Y-23784D01*
X21429Y-23712D01*
X21562Y-23579D01*
X21634Y-23405D01*
X21634Y-24217D01*
X21562Y-24043D01*
X21429Y-23910D01*
X21255Y-23838D01*
X21067Y-23838D01*
X20893Y-23910D01*
X20760Y-24043D01*
X20688Y-24217D01*
X20688Y-24405D01*
X20760Y-24579D01*
X20893Y-24712D01*
X21067Y-24784D01*
X21255Y-24784D01*
X21429Y-24712D01*
X21562Y-24579D01*
X21634Y-24405D01*
X21634Y-26402D01*
X20546Y-26402D01*
X20546Y-22219D01*
X59374Y-22219D01*
X59374Y-26402D01*
X59374Y-26402D01*
G37*
G54D15*
X59374Y-26402D02*
X22619Y-26402D01*
X22619Y-25405D01*
X22619Y-25217D01*
X22619Y-24405D01*
X22619Y-24217D01*
X22547Y-24043D01*
X22414Y-23910D01*
X22240Y-23838D01*
X22052Y-23838D01*
X21878Y-23910D01*
X21745Y-24043D01*
X21673Y-24217D01*
X21673Y-24405D01*
X21745Y-24579D01*
X21878Y-24712D01*
X22052Y-24784D01*
X22240Y-24784D01*
X22414Y-24712D01*
X22547Y-24579D01*
X22619Y-24405D01*
X22619Y-25217D01*
X22547Y-25043D01*
X22414Y-24910D01*
X22240Y-24838D01*
X22052Y-24838D01*
X21878Y-24910D01*
X21745Y-25043D01*
X21673Y-25217D01*
X21673Y-25405D01*
X21745Y-25579D01*
X21878Y-25712D01*
X22052Y-25784D01*
X22240Y-25784D01*
X22414Y-25712D01*
X22547Y-25579D01*
X22619Y-25405D01*
X22619Y-26402D01*
X21634Y-26402D01*
X21634Y-24405D01*
X21634Y-24217D01*
X21634Y-23405D01*
X21634Y-23217D01*
X21562Y-23043D01*
X21429Y-22910D01*
X21255Y-22838D01*
X21067Y-22838D01*
X20893Y-22910D01*
X20760Y-23043D01*
X20688Y-23217D01*
X20688Y-23405D01*
X20760Y-23579D01*
X20893Y-23712D01*
X21067Y-23784D01*
X21255Y-23784D01*
X21429Y-23712D01*
X21562Y-23579D01*
X21634Y-23405D01*
X21634Y-24217D01*
X21562Y-24043D01*
X21429Y-23910D01*
X21255Y-23838D01*
X21067Y-23838D01*
X20893Y-23910D01*
X20760Y-24043D01*
X20688Y-24217D01*
X20688Y-24405D01*
X20760Y-24579D01*
X20893Y-24712D01*
X21067Y-24784D01*
X21255Y-24784D01*
X21429Y-24712D01*
X21562Y-24579D01*
X21634Y-24405D01*
X21634Y-26402D01*
X20546Y-26402D01*
X20546Y-22219D01*
X59374Y-22219D01*
X59374Y-26402D01*
M02*
