G04 (created by PCBNEW-RS274X (2012-jan-04)-stable) date Wed 18 Jul 2012 07:42:49 PM CEST*
G01*
G70*
G90*
%MOIN*%
G04 Gerber Fmt 3.4, Leading zero omitted, Abs format*
%FSLAX34Y34*%
G04 APERTURE LIST*
%ADD10C,0.006000*%
%ADD11R,0.078700X0.078700*%
%ADD12R,0.039300X0.043300*%
%ADD13R,0.059000X0.051100*%
%ADD14R,0.055000X0.055000*%
%ADD15C,0.055000*%
%ADD16C,0.035000*%
%ADD17C,0.008000*%
%ADD18C,0.019700*%
G04 APERTURE END LIST*
G54D10*
G54D11*
X27461Y-24902D03*
X57972Y-23622D03*
G54D12*
X24174Y-22539D03*
X24842Y-22539D03*
G54D13*
X23327Y-23307D03*
X23327Y-22559D03*
G54D14*
X21161Y-25311D03*
G54D15*
X21161Y-24311D03*
X21161Y-23311D03*
G54D14*
X22146Y-23311D03*
G54D15*
X22146Y-24311D03*
X22146Y-25311D03*
G54D12*
X24174Y-26082D03*
X24842Y-26082D03*
G54D13*
X23327Y-25315D03*
X23327Y-26063D03*
G54D16*
X23917Y-24311D03*
X24508Y-24311D03*
X23917Y-25394D03*
X23917Y-24803D03*
X24508Y-24803D03*
X23917Y-23228D03*
X23917Y-23819D03*
X24508Y-23819D03*
G54D17*
X26181Y-22539D02*
X26378Y-22736D01*
X26378Y-22736D02*
X57087Y-22736D01*
X57087Y-22736D02*
X57972Y-23621D01*
X24842Y-22539D02*
X26181Y-22539D01*
X21240Y-22559D02*
X23327Y-22559D01*
X21161Y-23311D02*
X21161Y-22638D01*
X21161Y-22638D02*
X21240Y-22559D01*
X23327Y-22559D02*
X24154Y-22559D01*
X24154Y-22559D02*
X24174Y-22539D01*
X21162Y-24311D02*
X21161Y-24311D01*
X23228Y-23819D02*
X23327Y-23720D01*
X21654Y-23819D02*
X23228Y-23819D01*
X23327Y-23307D02*
X23327Y-23720D01*
X21162Y-24311D02*
X21654Y-23819D01*
X24842Y-26082D02*
X26279Y-26082D01*
X26279Y-26082D02*
X27460Y-24901D01*
X24155Y-26063D02*
X24174Y-26082D01*
X23327Y-26063D02*
X24155Y-26063D01*
X22146Y-25311D02*
X22146Y-25591D01*
X22146Y-25591D02*
X22618Y-26063D01*
X22618Y-26063D02*
X23327Y-26063D01*
X22933Y-24311D02*
X23327Y-24705D01*
X22146Y-24311D02*
X22933Y-24311D01*
X23327Y-24705D02*
X23327Y-25315D01*
X24508Y-24311D02*
X24508Y-24803D01*
X23917Y-24803D02*
X23917Y-25394D01*
X24508Y-23819D02*
X23917Y-23819D01*
G54D10*
G36*
X58858Y-25886D02*
X26377Y-25886D01*
X26377Y-23922D01*
X58858Y-25879D01*
X58858Y-25886D01*
X58858Y-25886D01*
G37*
G54D18*
X58858Y-25886D02*
X26377Y-25886D01*
X26377Y-23922D01*
X58858Y-25879D01*
X58858Y-25886D01*
G54D10*
G36*
X58858Y-24699D02*
X26377Y-22742D01*
X26377Y-22735D01*
X58858Y-22735D01*
X58858Y-24699D01*
X58858Y-24699D01*
G37*
G54D18*
X58858Y-24699D02*
X26377Y-22742D01*
X26377Y-22735D01*
X58858Y-22735D01*
X58858Y-24699D01*
G54D10*
G36*
X22872Y-22932D02*
X22865Y-22940D01*
X22835Y-23013D01*
X22835Y-23091D01*
X22835Y-23581D01*
X21654Y-23581D01*
X21563Y-23599D01*
X21537Y-23616D01*
X21499Y-23641D01*
X21562Y-23579D01*
X21634Y-23405D01*
X21634Y-23217D01*
X21562Y-23043D01*
X21429Y-22910D01*
X21399Y-22897D01*
X21399Y-22797D01*
X22835Y-22797D01*
X22835Y-22853D01*
X22865Y-22925D01*
X22872Y-22932D01*
X22872Y-22932D01*
G37*
G54D18*
X22872Y-22932D02*
X22865Y-22940D01*
X22835Y-23013D01*
X22835Y-23091D01*
X22835Y-23581D01*
X21654Y-23581D01*
X21563Y-23599D01*
X21537Y-23616D01*
X21499Y-23641D01*
X21562Y-23579D01*
X21634Y-23405D01*
X21634Y-23217D01*
X21562Y-23043D01*
X21429Y-22910D01*
X21399Y-22897D01*
X21399Y-22797D01*
X22835Y-22797D01*
X22835Y-22853D01*
X22865Y-22925D01*
X22872Y-22932D01*
G54D10*
G36*
X23089Y-24863D02*
X22993Y-24863D01*
X22921Y-24893D01*
X22865Y-24948D01*
X22835Y-25021D01*
X22835Y-25099D01*
X22835Y-25609D01*
X22865Y-25681D01*
X22872Y-25688D01*
X22865Y-25696D01*
X22835Y-25769D01*
X22835Y-25825D01*
X22716Y-25825D01*
X22508Y-25617D01*
X22547Y-25579D01*
X22619Y-25405D01*
X22619Y-25217D01*
X22547Y-25043D01*
X22414Y-24910D01*
X22240Y-24838D01*
X22052Y-24838D01*
X21878Y-24910D01*
X21745Y-25043D01*
X21673Y-25217D01*
X21673Y-25405D01*
X21745Y-25579D01*
X21878Y-25712D01*
X21972Y-25751D01*
X21978Y-25759D01*
X22449Y-26231D01*
X22450Y-26231D01*
X22526Y-26283D01*
X22527Y-26283D01*
X22541Y-26285D01*
X22618Y-26301D01*
X22835Y-26301D01*
X22835Y-26357D01*
X22853Y-26402D01*
X20546Y-26402D01*
X20546Y-22219D01*
X22853Y-22219D01*
X22835Y-22265D01*
X22835Y-22321D01*
X21240Y-22321D01*
X21149Y-22339D01*
X21123Y-22356D01*
X21071Y-22391D01*
X20993Y-22470D01*
X20941Y-22547D01*
X20923Y-22638D01*
X20923Y-22897D01*
X20893Y-22910D01*
X20760Y-23043D01*
X20688Y-23217D01*
X20688Y-23405D01*
X20760Y-23579D01*
X20893Y-23712D01*
X21067Y-23784D01*
X21255Y-23784D01*
X21420Y-23715D01*
X21285Y-23850D01*
X21255Y-23838D01*
X21067Y-23838D01*
X20893Y-23910D01*
X20760Y-24043D01*
X20688Y-24217D01*
X20688Y-24405D01*
X20760Y-24579D01*
X20893Y-24712D01*
X21067Y-24784D01*
X21255Y-24784D01*
X21429Y-24712D01*
X21562Y-24579D01*
X21634Y-24405D01*
X21634Y-24217D01*
X21621Y-24187D01*
X21729Y-24080D01*
X21673Y-24217D01*
X21673Y-24405D01*
X21745Y-24579D01*
X21878Y-24712D01*
X22052Y-24784D01*
X22240Y-24784D01*
X22414Y-24712D01*
X22547Y-24579D01*
X22559Y-24549D01*
X22835Y-24549D01*
X23089Y-24803D01*
X23089Y-24863D01*
X23089Y-24863D01*
G37*
G54D18*
X23089Y-24863D02*
X22993Y-24863D01*
X22921Y-24893D01*
X22865Y-24948D01*
X22835Y-25021D01*
X22835Y-25099D01*
X22835Y-25609D01*
X22865Y-25681D01*
X22872Y-25688D01*
X22865Y-25696D01*
X22835Y-25769D01*
X22835Y-25825D01*
X22716Y-25825D01*
X22508Y-25617D01*
X22547Y-25579D01*
X22619Y-25405D01*
X22619Y-25217D01*
X22547Y-25043D01*
X22414Y-24910D01*
X22240Y-24838D01*
X22052Y-24838D01*
X21878Y-24910D01*
X21745Y-25043D01*
X21673Y-25217D01*
X21673Y-25405D01*
X21745Y-25579D01*
X21878Y-25712D01*
X21972Y-25751D01*
X21978Y-25759D01*
X22449Y-26231D01*
X22450Y-26231D01*
X22526Y-26283D01*
X22527Y-26283D01*
X22541Y-26285D01*
X22618Y-26301D01*
X22835Y-26301D01*
X22835Y-26357D01*
X22853Y-26402D01*
X20546Y-26402D01*
X20546Y-22219D01*
X22853Y-22219D01*
X22835Y-22265D01*
X22835Y-22321D01*
X21240Y-22321D01*
X21149Y-22339D01*
X21123Y-22356D01*
X21071Y-22391D01*
X20993Y-22470D01*
X20941Y-22547D01*
X20923Y-22638D01*
X20923Y-22897D01*
X20893Y-22910D01*
X20760Y-23043D01*
X20688Y-23217D01*
X20688Y-23405D01*
X20760Y-23579D01*
X20893Y-23712D01*
X21067Y-23784D01*
X21255Y-23784D01*
X21420Y-23715D01*
X21285Y-23850D01*
X21255Y-23838D01*
X21067Y-23838D01*
X20893Y-23910D01*
X20760Y-24043D01*
X20688Y-24217D01*
X20688Y-24405D01*
X20760Y-24579D01*
X20893Y-24712D01*
X21067Y-24784D01*
X21255Y-24784D01*
X21429Y-24712D01*
X21562Y-24579D01*
X21634Y-24405D01*
X21634Y-24217D01*
X21621Y-24187D01*
X21729Y-24080D01*
X21673Y-24217D01*
X21673Y-24405D01*
X21745Y-24579D01*
X21878Y-24712D01*
X22052Y-24784D01*
X22240Y-24784D01*
X22414Y-24712D01*
X22547Y-24579D01*
X22559Y-24549D01*
X22835Y-24549D01*
X23089Y-24803D01*
X23089Y-24863D01*
G54D10*
G36*
X59374Y-26402D02*
X59251Y-26402D01*
X25208Y-26402D01*
X25235Y-26337D01*
X25235Y-26320D01*
X26279Y-26320D01*
X26370Y-26302D01*
X26405Y-26278D01*
X59251Y-26278D01*
X59251Y-25498D01*
X25984Y-23517D01*
X25984Y-25844D01*
X25235Y-25844D01*
X25235Y-25827D01*
X25205Y-25755D01*
X25150Y-25699D01*
X25077Y-25669D01*
X24999Y-25669D01*
X24607Y-25669D01*
X24535Y-25699D01*
X24508Y-25725D01*
X24482Y-25699D01*
X24409Y-25669D01*
X24331Y-25669D01*
X23939Y-25669D01*
X23867Y-25699D01*
X23812Y-25752D01*
X23789Y-25697D01*
X23781Y-25689D01*
X23789Y-25682D01*
X23819Y-25609D01*
X23819Y-25531D01*
X23819Y-25021D01*
X23789Y-24949D01*
X23734Y-24893D01*
X23661Y-24863D01*
X23583Y-24863D01*
X23565Y-24863D01*
X23565Y-24705D01*
X23547Y-24614D01*
X23495Y-24537D01*
X23101Y-24143D01*
X23024Y-24091D01*
X22933Y-24073D01*
X22559Y-24073D01*
X22552Y-24057D01*
X23228Y-24057D01*
X23319Y-24039D01*
X23396Y-23987D01*
X23495Y-23888D01*
X23547Y-23811D01*
X23557Y-23759D01*
X23661Y-23759D01*
X23733Y-23729D01*
X23789Y-23674D01*
X23819Y-23601D01*
X23819Y-23523D01*
X23819Y-23013D01*
X23789Y-22941D01*
X23781Y-22933D01*
X23789Y-22926D01*
X23812Y-22867D01*
X23866Y-22922D01*
X23939Y-22952D01*
X24017Y-22952D01*
X24409Y-22952D01*
X24481Y-22922D01*
X24507Y-22895D01*
X24534Y-22922D01*
X24607Y-22952D01*
X24685Y-22952D01*
X25077Y-22952D01*
X25149Y-22922D01*
X25205Y-22867D01*
X25235Y-22794D01*
X25235Y-22777D01*
X25984Y-22777D01*
X25984Y-23123D01*
X59251Y-25103D01*
X59251Y-22342D01*
X26306Y-22342D01*
X26272Y-22319D01*
X26181Y-22301D01*
X25235Y-22301D01*
X25235Y-22284D01*
X25207Y-22219D01*
X59374Y-22219D01*
X59374Y-26402D01*
X59374Y-26402D01*
G37*
G54D18*
X59374Y-26402D02*
X59251Y-26402D01*
X25208Y-26402D01*
X25235Y-26337D01*
X25235Y-26320D01*
X26279Y-26320D01*
X26370Y-26302D01*
X26405Y-26278D01*
X59251Y-26278D01*
X59251Y-25498D01*
X25984Y-23517D01*
X25984Y-25844D01*
X25235Y-25844D01*
X25235Y-25827D01*
X25205Y-25755D01*
X25150Y-25699D01*
X25077Y-25669D01*
X24999Y-25669D01*
X24607Y-25669D01*
X24535Y-25699D01*
X24508Y-25725D01*
X24482Y-25699D01*
X24409Y-25669D01*
X24331Y-25669D01*
X23939Y-25669D01*
X23867Y-25699D01*
X23812Y-25752D01*
X23789Y-25697D01*
X23781Y-25689D01*
X23789Y-25682D01*
X23819Y-25609D01*
X23819Y-25531D01*
X23819Y-25021D01*
X23789Y-24949D01*
X23734Y-24893D01*
X23661Y-24863D01*
X23583Y-24863D01*
X23565Y-24863D01*
X23565Y-24705D01*
X23547Y-24614D01*
X23495Y-24537D01*
X23101Y-24143D01*
X23024Y-24091D01*
X22933Y-24073D01*
X22559Y-24073D01*
X22552Y-24057D01*
X23228Y-24057D01*
X23319Y-24039D01*
X23396Y-23987D01*
X23495Y-23888D01*
X23547Y-23811D01*
X23557Y-23759D01*
X23661Y-23759D01*
X23733Y-23729D01*
X23789Y-23674D01*
X23819Y-23601D01*
X23819Y-23523D01*
X23819Y-23013D01*
X23789Y-22941D01*
X23781Y-22933D01*
X23789Y-22926D01*
X23812Y-22867D01*
X23866Y-22922D01*
X23939Y-22952D01*
X24017Y-22952D01*
X24409Y-22952D01*
X24481Y-22922D01*
X24507Y-22895D01*
X24534Y-22922D01*
X24607Y-22952D01*
X24685Y-22952D01*
X25077Y-22952D01*
X25149Y-22922D01*
X25205Y-22867D01*
X25235Y-22794D01*
X25235Y-22777D01*
X25984Y-22777D01*
X25984Y-23123D01*
X59251Y-25103D01*
X59251Y-22342D01*
X26306Y-22342D01*
X26272Y-22319D01*
X26181Y-22301D01*
X25235Y-22301D01*
X25235Y-22284D01*
X25207Y-22219D01*
X59374Y-22219D01*
X59374Y-26402D01*
M02*
