G04 (created by PCBNEW-RS274X (2012-jan-04)-stable) date Wed 18 Jul 2012 02:08:58 PM CEST*
G01*
G70*
G90*
%MOIN*%
G04 Gerber Fmt 3.4, Leading zero omitted, Abs format*
%FSLAX34Y34*%
G04 APERTURE LIST*
%ADD10C,0.006000*%
%ADD11C,0.011800*%
%ADD12C,0.015000*%
%ADD13C,0.002600*%
%ADD14C,0.002000*%
%ADD15C,0.004000*%
%ADD16C,0.012000*%
%ADD17C,0.008000*%
%ADD18R,0.059300X0.063300*%
%ADD19R,0.079000X0.071100*%
%ADD20R,0.075000X0.075000*%
%ADD21C,0.075000*%
G04 APERTURE END LIST*
G54D10*
G54D11*
X55531Y-25967D02*
X55643Y-25967D01*
X55700Y-25939D01*
X55728Y-25910D01*
X55784Y-25826D01*
X55812Y-25713D01*
X55812Y-25488D01*
X55784Y-25432D01*
X55756Y-25404D01*
X55700Y-25376D01*
X55587Y-25376D01*
X55531Y-25404D01*
X55503Y-25432D01*
X55475Y-25488D01*
X55475Y-25629D01*
X55503Y-25685D01*
X55531Y-25713D01*
X55587Y-25742D01*
X55700Y-25742D01*
X55756Y-25713D01*
X55784Y-25685D01*
X55812Y-25629D01*
X56178Y-25376D02*
X56235Y-25376D01*
X56291Y-25404D01*
X56319Y-25432D01*
X56347Y-25488D01*
X56375Y-25601D01*
X56375Y-25742D01*
X56347Y-25854D01*
X56319Y-25910D01*
X56291Y-25939D01*
X56235Y-25967D01*
X56178Y-25967D01*
X56122Y-25939D01*
X56094Y-25910D01*
X56066Y-25854D01*
X56038Y-25742D01*
X56038Y-25601D01*
X56066Y-25488D01*
X56094Y-25432D01*
X56122Y-25404D01*
X56178Y-25376D01*
X52260Y-25629D02*
X52204Y-25601D01*
X52176Y-25573D01*
X52148Y-25516D01*
X52148Y-25488D01*
X52176Y-25432D01*
X52204Y-25404D01*
X52260Y-25376D01*
X52373Y-25376D01*
X52429Y-25404D01*
X52457Y-25432D01*
X52485Y-25488D01*
X52485Y-25516D01*
X52457Y-25573D01*
X52429Y-25601D01*
X52373Y-25629D01*
X52260Y-25629D01*
X52204Y-25657D01*
X52176Y-25685D01*
X52148Y-25742D01*
X52148Y-25854D01*
X52176Y-25910D01*
X52204Y-25939D01*
X52260Y-25967D01*
X52373Y-25967D01*
X52429Y-25939D01*
X52457Y-25910D01*
X52485Y-25854D01*
X52485Y-25742D01*
X52457Y-25685D01*
X52429Y-25657D01*
X52373Y-25629D01*
X52851Y-25376D02*
X52908Y-25376D01*
X52964Y-25404D01*
X52992Y-25432D01*
X53020Y-25488D01*
X53048Y-25601D01*
X53048Y-25742D01*
X53020Y-25854D01*
X52992Y-25910D01*
X52964Y-25939D01*
X52908Y-25967D01*
X52851Y-25967D01*
X52795Y-25939D01*
X52767Y-25910D01*
X52739Y-25854D01*
X52711Y-25742D01*
X52711Y-25601D01*
X52739Y-25488D01*
X52767Y-25432D01*
X52795Y-25404D01*
X52851Y-25376D01*
X48793Y-25376D02*
X49187Y-25376D01*
X48934Y-25967D01*
X49525Y-25376D02*
X49582Y-25376D01*
X49638Y-25404D01*
X49666Y-25432D01*
X49694Y-25488D01*
X49722Y-25601D01*
X49722Y-25742D01*
X49694Y-25854D01*
X49666Y-25910D01*
X49638Y-25939D01*
X49582Y-25967D01*
X49525Y-25967D01*
X49469Y-25939D01*
X49441Y-25910D01*
X49413Y-25854D01*
X49385Y-25742D01*
X49385Y-25601D01*
X49413Y-25488D01*
X49441Y-25432D01*
X49469Y-25404D01*
X49525Y-25376D01*
X45776Y-25376D02*
X45663Y-25376D01*
X45607Y-25404D01*
X45579Y-25432D01*
X45523Y-25516D01*
X45495Y-25629D01*
X45495Y-25854D01*
X45523Y-25910D01*
X45551Y-25939D01*
X45607Y-25967D01*
X45720Y-25967D01*
X45776Y-25939D01*
X45804Y-25910D01*
X45832Y-25854D01*
X45832Y-25713D01*
X45804Y-25657D01*
X45776Y-25629D01*
X45720Y-25601D01*
X45607Y-25601D01*
X45551Y-25629D01*
X45523Y-25657D01*
X45495Y-25713D01*
X46198Y-25376D02*
X46255Y-25376D01*
X46311Y-25404D01*
X46339Y-25432D01*
X46367Y-25488D01*
X46395Y-25601D01*
X46395Y-25742D01*
X46367Y-25854D01*
X46339Y-25910D01*
X46311Y-25939D01*
X46255Y-25967D01*
X46198Y-25967D01*
X46142Y-25939D01*
X46114Y-25910D01*
X46086Y-25854D01*
X46058Y-25742D01*
X46058Y-25601D01*
X46086Y-25488D01*
X46114Y-25432D01*
X46142Y-25404D01*
X46198Y-25376D01*
X42477Y-25357D02*
X42196Y-25357D01*
X42168Y-25638D01*
X42196Y-25610D01*
X42252Y-25582D01*
X42393Y-25582D01*
X42449Y-25610D01*
X42477Y-25638D01*
X42505Y-25694D01*
X42505Y-25835D01*
X42477Y-25891D01*
X42449Y-25920D01*
X42393Y-25948D01*
X42252Y-25948D01*
X42196Y-25920D01*
X42168Y-25891D01*
X42871Y-25357D02*
X42928Y-25357D01*
X42984Y-25385D01*
X43012Y-25413D01*
X43040Y-25469D01*
X43068Y-25582D01*
X43068Y-25723D01*
X43040Y-25835D01*
X43012Y-25891D01*
X42984Y-25920D01*
X42928Y-25948D01*
X42871Y-25948D01*
X42815Y-25920D01*
X42787Y-25891D01*
X42759Y-25835D01*
X42731Y-25723D01*
X42731Y-25582D01*
X42759Y-25469D01*
X42787Y-25413D01*
X42815Y-25385D01*
X42871Y-25357D01*
X39122Y-25573D02*
X39122Y-25967D01*
X38981Y-25348D02*
X38841Y-25770D01*
X39206Y-25770D01*
X39544Y-25376D02*
X39601Y-25376D01*
X39657Y-25404D01*
X39685Y-25432D01*
X39713Y-25488D01*
X39741Y-25601D01*
X39741Y-25742D01*
X39713Y-25854D01*
X39685Y-25910D01*
X39657Y-25939D01*
X39601Y-25967D01*
X39544Y-25967D01*
X39488Y-25939D01*
X39460Y-25910D01*
X39432Y-25854D01*
X39404Y-25742D01*
X39404Y-25601D01*
X39432Y-25488D01*
X39460Y-25432D01*
X39488Y-25404D01*
X39544Y-25376D01*
X35486Y-25376D02*
X35852Y-25376D01*
X35655Y-25601D01*
X35740Y-25601D01*
X35796Y-25629D01*
X35824Y-25657D01*
X35852Y-25713D01*
X35852Y-25854D01*
X35824Y-25910D01*
X35796Y-25939D01*
X35740Y-25967D01*
X35571Y-25967D01*
X35515Y-25939D01*
X35486Y-25910D01*
X36218Y-25376D02*
X36275Y-25376D01*
X36331Y-25404D01*
X36359Y-25432D01*
X36387Y-25488D01*
X36415Y-25601D01*
X36415Y-25742D01*
X36387Y-25854D01*
X36359Y-25910D01*
X36331Y-25939D01*
X36275Y-25967D01*
X36218Y-25967D01*
X36162Y-25939D01*
X36134Y-25910D01*
X36106Y-25854D01*
X36078Y-25742D01*
X36078Y-25601D01*
X36106Y-25488D01*
X36134Y-25432D01*
X36162Y-25404D01*
X36218Y-25376D01*
X32188Y-25432D02*
X32216Y-25404D01*
X32272Y-25376D01*
X32413Y-25376D01*
X32469Y-25404D01*
X32497Y-25432D01*
X32525Y-25488D01*
X32525Y-25545D01*
X32497Y-25629D01*
X32159Y-25967D01*
X32525Y-25967D01*
X32891Y-25376D02*
X32948Y-25376D01*
X33004Y-25404D01*
X33032Y-25432D01*
X33060Y-25488D01*
X33088Y-25601D01*
X33088Y-25742D01*
X33060Y-25854D01*
X33032Y-25910D01*
X33004Y-25939D01*
X32948Y-25967D01*
X32891Y-25967D01*
X32835Y-25939D01*
X32807Y-25910D01*
X32779Y-25854D01*
X32751Y-25742D01*
X32751Y-25601D01*
X32779Y-25488D01*
X32807Y-25432D01*
X32835Y-25404D01*
X32891Y-25376D01*
X29198Y-25967D02*
X28861Y-25967D01*
X29029Y-25967D02*
X29029Y-25376D01*
X28973Y-25460D01*
X28917Y-25516D01*
X28861Y-25545D01*
X29564Y-25376D02*
X29621Y-25376D01*
X29677Y-25404D01*
X29705Y-25432D01*
X29733Y-25488D01*
X29761Y-25601D01*
X29761Y-25742D01*
X29733Y-25854D01*
X29705Y-25910D01*
X29677Y-25939D01*
X29621Y-25967D01*
X29564Y-25967D01*
X29508Y-25939D01*
X29480Y-25910D01*
X29452Y-25854D01*
X29424Y-25742D01*
X29424Y-25601D01*
X29452Y-25488D01*
X29480Y-25432D01*
X29508Y-25404D01*
X29564Y-25376D01*
G54D12*
X55925Y-23720D02*
X55925Y-24902D01*
X45946Y-23720D02*
X45946Y-24902D01*
X49273Y-24902D02*
X49273Y-23720D01*
X52599Y-23720D02*
X52599Y-24902D01*
X39291Y-23720D02*
X39291Y-24902D01*
X35965Y-24902D02*
X35965Y-23720D01*
X32638Y-23720D02*
X32638Y-24902D01*
X29311Y-23720D02*
X29311Y-24902D01*
X42618Y-23720D02*
X42618Y-24902D01*
X25984Y-24311D02*
X59252Y-24311D01*
X59252Y-26378D02*
X25984Y-26378D01*
X25984Y-22244D02*
X59252Y-22244D01*
X25984Y-22244D02*
X25984Y-26378D01*
X59252Y-22244D02*
X59252Y-26378D01*
G54D13*
X24678Y-22709D02*
X24838Y-22709D01*
X24838Y-22709D02*
X24838Y-22369D01*
X24678Y-22369D02*
X24838Y-22369D01*
X24678Y-22709D02*
X24678Y-22369D01*
X24178Y-22709D02*
X24338Y-22709D01*
X24338Y-22709D02*
X24338Y-22369D01*
X24178Y-22369D02*
X24338Y-22369D01*
X24178Y-22709D02*
X24178Y-22369D01*
X24430Y-22696D02*
X24586Y-22696D01*
X24586Y-22696D02*
X24586Y-22382D01*
X24430Y-22382D02*
X24586Y-22382D01*
X24430Y-22696D02*
X24430Y-22382D01*
G54D10*
X24338Y-22679D02*
X24678Y-22679D01*
X24678Y-22399D02*
X24338Y-22399D01*
G54D14*
X23929Y-22152D02*
X25087Y-22152D01*
X25087Y-22152D02*
X25087Y-22926D01*
X25087Y-22926D02*
X23929Y-22926D01*
X23929Y-22926D02*
X23929Y-22152D01*
G54D13*
X23612Y-23362D02*
X23612Y-23067D01*
X23612Y-23067D02*
X23042Y-23067D01*
X23042Y-23362D02*
X23042Y-23067D01*
X23612Y-23362D02*
X23042Y-23362D01*
X23612Y-22793D02*
X23612Y-22498D01*
X23612Y-22498D02*
X23042Y-22498D01*
X23042Y-22793D02*
X23042Y-22498D01*
X23612Y-22793D02*
X23042Y-22793D01*
X23484Y-22972D02*
X23484Y-22894D01*
X23484Y-22894D02*
X23170Y-22894D01*
X23170Y-22972D02*
X23170Y-22894D01*
X23484Y-22972D02*
X23170Y-22972D01*
G54D14*
X22940Y-23709D02*
X22940Y-22157D01*
X23714Y-22157D02*
X23714Y-23709D01*
X23714Y-23709D02*
X22940Y-23709D01*
G54D15*
X23068Y-23083D02*
X23068Y-22783D01*
X23586Y-23073D02*
X23586Y-22783D01*
G54D14*
X22940Y-22157D02*
X23714Y-22157D01*
G54D16*
X21661Y-25811D02*
X20661Y-25811D01*
X20661Y-25811D02*
X20661Y-22811D01*
X20661Y-22811D02*
X21661Y-22811D01*
X21661Y-22811D02*
X21661Y-25811D01*
X20661Y-24811D02*
X21661Y-24811D01*
X21646Y-22811D02*
X22646Y-22811D01*
X22646Y-22811D02*
X22646Y-25811D01*
X22646Y-25811D02*
X21646Y-25811D01*
X21646Y-25811D02*
X21646Y-22811D01*
X22646Y-23811D02*
X21646Y-23811D01*
G54D13*
X24678Y-26252D02*
X24838Y-26252D01*
X24838Y-26252D02*
X24838Y-25912D01*
X24678Y-25912D02*
X24838Y-25912D01*
X24678Y-26252D02*
X24678Y-25912D01*
X24178Y-26252D02*
X24338Y-26252D01*
X24338Y-26252D02*
X24338Y-25912D01*
X24178Y-25912D02*
X24338Y-25912D01*
X24178Y-26252D02*
X24178Y-25912D01*
X24430Y-26239D02*
X24586Y-26239D01*
X24586Y-26239D02*
X24586Y-25925D01*
X24430Y-25925D02*
X24586Y-25925D01*
X24430Y-26239D02*
X24430Y-25925D01*
G54D10*
X24338Y-26222D02*
X24678Y-26222D01*
X24678Y-25942D02*
X24338Y-25942D01*
G54D14*
X23929Y-25695D02*
X25087Y-25695D01*
X25087Y-25695D02*
X25087Y-26469D01*
X25087Y-26469D02*
X23929Y-26469D01*
X23929Y-26469D02*
X23929Y-25695D01*
G54D13*
X23042Y-25260D02*
X23042Y-25555D01*
X23042Y-25555D02*
X23612Y-25555D01*
X23612Y-25260D02*
X23612Y-25555D01*
X23042Y-25260D02*
X23612Y-25260D01*
X23042Y-25829D02*
X23042Y-26124D01*
X23042Y-26124D02*
X23612Y-26124D01*
X23612Y-25829D02*
X23612Y-26124D01*
X23042Y-25829D02*
X23612Y-25829D01*
X23170Y-25650D02*
X23170Y-25728D01*
X23170Y-25728D02*
X23484Y-25728D01*
X23484Y-25650D02*
X23484Y-25728D01*
X23170Y-25650D02*
X23484Y-25650D01*
G54D14*
X23714Y-24913D02*
X23714Y-26465D01*
X22940Y-26465D02*
X22940Y-24913D01*
X22940Y-24913D02*
X23714Y-24913D01*
G54D15*
X23586Y-25539D02*
X23586Y-25839D01*
X23068Y-25549D02*
X23068Y-25839D01*
G54D14*
X23714Y-26465D02*
X22940Y-26465D01*
G54D17*
X24442Y-23489D02*
X24308Y-23298D01*
X24213Y-23489D02*
X24213Y-23089D01*
X24366Y-23089D01*
X24404Y-23108D01*
X24423Y-23127D01*
X24442Y-23165D01*
X24442Y-23222D01*
X24423Y-23260D01*
X24404Y-23279D01*
X24366Y-23298D01*
X24213Y-23298D01*
X24823Y-23489D02*
X24594Y-23489D01*
X24708Y-23489D02*
X24708Y-23089D01*
X24670Y-23146D01*
X24632Y-23184D01*
X24594Y-23203D01*
X23261Y-24140D02*
X23242Y-24159D01*
X23185Y-24178D01*
X23147Y-24178D01*
X23089Y-24159D01*
X23051Y-24121D01*
X23032Y-24083D01*
X23013Y-24006D01*
X23013Y-23949D01*
X23032Y-23873D01*
X23051Y-23835D01*
X23089Y-23797D01*
X23147Y-23778D01*
X23185Y-23778D01*
X23242Y-23797D01*
X23261Y-23816D01*
X23642Y-24178D02*
X23413Y-24178D01*
X23527Y-24178D02*
X23527Y-23778D01*
X23489Y-23835D01*
X23451Y-23873D01*
X23413Y-23892D01*
X24442Y-25457D02*
X24308Y-25266D01*
X24213Y-25457D02*
X24213Y-25057D01*
X24366Y-25057D01*
X24404Y-25076D01*
X24423Y-25095D01*
X24442Y-25133D01*
X24442Y-25190D01*
X24423Y-25228D01*
X24404Y-25247D01*
X24366Y-25266D01*
X24213Y-25266D01*
X24594Y-25095D02*
X24613Y-25076D01*
X24651Y-25057D01*
X24747Y-25057D01*
X24785Y-25076D01*
X24804Y-25095D01*
X24823Y-25133D01*
X24823Y-25171D01*
X24804Y-25228D01*
X24575Y-25457D01*
X24823Y-25457D01*
X23261Y-24730D02*
X23242Y-24749D01*
X23185Y-24768D01*
X23147Y-24768D01*
X23089Y-24749D01*
X23051Y-24711D01*
X23032Y-24673D01*
X23013Y-24596D01*
X23013Y-24539D01*
X23032Y-24463D01*
X23051Y-24425D01*
X23089Y-24387D01*
X23147Y-24368D01*
X23185Y-24368D01*
X23242Y-24387D01*
X23261Y-24406D01*
X23413Y-24406D02*
X23432Y-24387D01*
X23470Y-24368D01*
X23566Y-24368D01*
X23604Y-24387D01*
X23623Y-24406D01*
X23642Y-24444D01*
X23642Y-24482D01*
X23623Y-24539D01*
X23394Y-24768D01*
X23642Y-24768D01*
%LPC*%
G54D18*
X24174Y-22539D03*
X24842Y-22539D03*
G54D19*
X23327Y-23307D03*
X23327Y-22559D03*
G54D20*
X21161Y-25311D03*
G54D21*
X21161Y-24311D03*
X21161Y-23311D03*
G54D20*
X22146Y-23311D03*
G54D21*
X22146Y-24311D03*
X22146Y-25311D03*
G54D18*
X24174Y-26082D03*
X24842Y-26082D03*
G54D19*
X23327Y-25315D03*
X23327Y-26063D03*
M02*
